<?xml version="1.0" encoding="utf-8"?>
<!-- Generator: Adobe Illustrator 19.0.0, SVG Export Plug-In . SVG Version: 6.00 Build 0)  -->
<svg version="1.1" id="Layer_1" xmlns="http://www.w3.org/2000/svg" xmlns:xlink="http://www.w3.org/1999/xlink" x="0px" y="0px"
	 viewBox="370.6 38.4 569 715.1" style="enable-background:new 370.6 38.4 569 715.1;" xml:space="preserve">
<g>
	<g>
		<g>
			<path d="M633,568.1c0.4,6.1,4.6,7.7,9.8,8c6.3,0.4,12.7,0.9,19,1.3c3.8,0.3,9.4,1.7,12.8-0.6c4.6-3.1,3.6-10.4,3.9-15.2
				c0.1-1.5-1.2-2.3-2.5-2.5c-13.3-1.7-26.5-3.4-39.8-5.1c-1.4-0.2-2.4,1.3-2.5,2.5C633.4,560.4,633.2,564.3,633,568.1
				c-0.2,3.2,4.8,3.2,5,0c0.2-3.9,0.5-7.7,0.7-11.6c-0.8,0.8-1.7,1.7-2.5,2.5c13.3,1.7,26.5,3.4,39.8,5.1c-0.8-0.8-1.7-1.7-2.5-2.5
				c-0.2,3,0.8,10.4-3.1,11.4c-2.3,0.6-6.2-0.4-8.6-0.6c-4.7-0.3-9.4-0.7-14.1-1c-2.6-0.2-9.4,0.8-9.6-3.4
				C637.8,564.9,632.8,564.9,633,568.1z"/>
		</g>
	</g>
	<g>
		<g>
			<path d="M863.5,572.3c0.3,3.6-5.8,3.9-8,4.5c-4.1,1-8.3,2.1-12.4,3.1c-2.4,0.6-6,2.3-8.5,2.1c-3.6-0.2-3.8-6.2-4.5-9
				c-0.6,1-1.2,2.1-1.7,3.1c12-3.7,23.9-7.3,35.9-11c-1-0.6-2.1-1.2-3.1-1.7c0.8,3.2,1.6,6.4,2.4,9.6c0.8,3.1,5.6,1.8,4.8-1.3
				c-0.8-3.2-1.6-6.4-2.4-9.6c-0.3-1.3-1.8-2.1-3.1-1.7c-12,3.7-23.9,7.3-35.9,11c-1.3,0.4-2.1,1.7-1.7,3.1
				c1.1,4.3,1.4,10.7,6.3,12.4c3.5,1.3,8.6-1,12-1.8c5.5-1.4,11.1-2.8,16.6-4.2c4.5-1.1,8.8-2.8,8.4-8.5
				C868.2,569.1,863.2,569.1,863.5,572.3z"/>
		</g>
	</g>
	<g>
		<g>
			<path d="M754,149.8c0.7-4,3-7.3,5-10.7c1.6-2.8-2.7-5.3-4.3-2.5c-2.2,3.8-4.7,7.5-5.5,11.9C748.6,151.6,753.4,153,754,149.8
				L754,149.8z"/>
		</g>
	</g>
	<g>
		<g>
			<path d="M769.3,157.7c6.1-18,28.2-27.2,45.2-30.7c22.1-4.6,46.8-1.2,63.9,14.3c2.4,2.2,5.9-1.4,3.5-3.5
				c-18.6-16.8-44.9-20.6-68.8-15.6c-19,3.9-42,14.4-48.7,34.2C763.5,159.4,768.3,160.7,769.3,157.7L769.3,157.7z"/>
		</g>
	</g>
	<g>
		<g>
			<path d="M893.1,183.7c-0.1,12.8-9.2,22.5-15.9,32.6c-5.4,8.1-10.1,16.7-14,25.6c-5,11.4-9.6,23.2-11.9,35.5
				c-4,21.2-0.8,42.5-3.3,63.8c-1.4,12-4.4,28.8-17.3,33.8c-13.4,5.3-30.5-1.9-43-6.5c-3-1.1-4.3,3.7-1.3,4.8
				c12.7,4.6,27.4,10.2,41.2,7.7c12.5-2.3,19.3-12.9,22.6-24.4c5.8-20.6,2.5-41.8,4-62.8c1.8-25,11.4-49.8,24.7-70.9
				c7.8-12.4,19.1-23.7,19.3-39.2C898.1,180.5,893.1,180.5,893.1,183.7L893.1,183.7z"/>
		</g>
	</g>
	<g>
		<g>
			<path d="M590.9,403.4c20.7-4.9,41-16.1,56.4-30.8c2.3-2.2-1.2-5.8-3.5-3.5c-14.8,14.1-34.3,24.7-54.2,29.5
				C586.4,399.4,587.7,404.2,590.9,403.4L590.9,403.4z"/>
		</g>
	</g>
	<g>
		<g>
			<path d="M751.1,361.3c-3.1-5.8-3.1-12.5-3.7-18.9c-0.3-3.2-5.3-3.2-5,0c0.6,7.4,0.8,14.7,4.3,21.4
				C748.3,366.6,752.6,364.1,751.1,361.3L751.1,361.3z"/>
		</g>
	</g>
	<g>
		<g>
			<g>
				<path d="M634.7,254.6c-2.4-16.1-18.8-28.7-34.7-21c-16.3,7.9-17.7,29.9-6.9,42.7c0.5,0.6,1.7,0.9,2.4,0.6
					c12.5-4.3,24.9-8.6,37.4-12.9c1.1-0.4,1.7-1.2,1.8-2.4c0.2-2.2,0.2-4.2,0-6.4c-0.3-3.2-5.3-3.2-5,0c0.2,2.2,0.2,4.2,0,6.4
					c0.6-0.8,1.2-1.6,1.8-2.4c-12.5,4.3-24.9,8.6-37.4,12.9c0.8,0.2,1.6,0.4,2.4,0.6c-8.7-10.4-7.5-28.7,5.9-34.9
					c13.3-6.1,25.4,5.2,27.4,18C630.4,259.1,635.2,257.8,634.7,254.6z"/>
			</g>
		</g>
		<g>
			<path d="M621.6,260.2c-0.8-6.7-6.4-11.6-12.6-10.8c-6.1,0.7-10.4,6.8-9.6,13.5c0.3,2.8,1.5,5.2,3.2,7.1l19-6.6
				C621.7,262.4,621.7,261.3,621.6,260.2z"/>
			<g>
				<path d="M624,259.5c-1.5-8.9-10.7-15.8-19.5-11.4c-9.1,4.5-9.5,16.4-3.7,23.6c0.5,0.6,1.7,0.9,2.4,0.6c6.3-2.2,12.7-4.4,19-6.6
					c1.1-0.4,1.8-1.2,1.8-2.4c0.1-1.1,0.1-2.2,0-3.3c-0.2-3.2-5.2-3.2-5,0c0.1,1.1,0.1,2.2,0,3.3c0.6-0.8,1.2-1.6,1.8-2.4
					c-6.3,2.2-12.7,4.4-19,6.6c0.8,0.2,1.6,0.4,2.4,0.6c-3.9-4.9-3.3-13.4,3.1-15.9c6.1-2.4,10.8,3.1,11.7,8.6
					C619.7,264,624.5,262.7,624,259.5z"/>
			</g>
		</g>
		<g>
			<g>
				<path d="M618.7,235.7c0.1-2.6,1.6-4.7,2.8-6.9c1.6-2.8-2.8-5.3-4.3-2.5c-1.7,3-3.3,5.9-3.5,9.4
					C613.6,238.9,618.6,238.9,618.7,235.7L618.7,235.7z"/>
			</g>
		</g>
		<g>
			<g>
				<path d="M625,238.5c0.2-2.7,1.8-5,3-7.3c1.6-2.8-2.7-5.3-4.3-2.5c-1.7,3.1-3.5,6.1-3.7,9.8C619.8,241.7,624.8,241.7,625,238.5
					L625,238.5z"/>
			</g>
		</g>
		<g>
			<g>
				<path d="M594.2,223.2c7-7.2,22.1-7.8,29.2,0c2.2,2.4,5.7-1.2,3.5-3.5c-8.8-9.8-27.5-9.1-36.2,0C588.5,222,592,225.5,594.2,223.2
					L594.2,223.2z"/>
			</g>
		</g>
		<g>
			<g>
				<path d="M611.4,234c0.1-2.6,1.6-4.7,2.8-6.9c1.6-2.8-2.8-5.3-4.3-2.5c-1.7,3-3.3,5.9-3.5,9.4C606.3,237.3,611.3,237.3,611.4,234
					L611.4,234z"/>
			</g>
		</g>
	</g>
	<g>
		<g>
			<path d="M778.5,393.9c-10.3,6-20.6,12-30.8,18c0.8,0,1.7,0,2.5,0c-7.6-4.1-15.2-8.3-22.8-12.4c-4.5-2.4-9-4.9-13.4-7.3
				c-1-0.5-2-1.3-3-1.7c-2.7-0.9-5.4,0.9-8,1.9c-10,3.8-20.2,7-30.6,9.7c-1.6,0.4-3.9,0.6-5.3,1.6c-1.4,1.1-2.3,3.8-3.1,5.3
				c-2.7,5.1-5.2,10.3-7.6,15.6c-8.6,19.1-15.2,39-19.8,59.4c-5.3,23.7-7.8,47.9-8.2,72.1c0,1.5,1.2,2.3,2.5,2.5c16.7,2,33.3,4,50,6
				c1.1,0.1,2.2-0.9,2.4-1.8c6.4-25.4,12.9-50.8,19.3-76.2c-1.6-0.2-3.3-0.4-4.9-0.7c-2.4,31.5-4.9,62.9-7.3,94.4
				c-0.3,4.5-0.7,9-1,13.5c-0.1,1.3,1.2,2.6,2.5,2.5c33.7-1.4,67.5-2.7,101.2-4.1c4.8-0.2,9.7-0.4,14.5-0.6c1.3-0.1,2.5-1.1,2.5-2.5
				c-1-28.2-1.9-56.5-2.9-84.7c-0.1-4.1-0.3-8.2-0.4-12.3c-1.6,0.2-3.3,0.4-4.9,0.7c6.2,27.3,12.4,54.7,18.7,82
				c0.3,1.3,1.8,2.1,3.1,1.7c14.6-3.7,29.3-7.4,43.9-11.1c1-0.3,1.9-1.3,1.8-2.4c-3-53.8-9.9-112.1-38.2-159.2
				c-0.6-1-1.7-1.4-2.8-1.1c-16.2,4.3-33.2-0.2-47.3-8.7c-2.8-1.7-5.3,2.7-2.5,4.3c15.2,9.2,33.7,13.8,51.1,9.2
				c-0.9-0.4-1.9-0.8-2.8-1.1c27.8,46.3,34.5,103.8,37.5,156.7c0.6-0.8,1.2-1.6,1.8-2.4c-14.6,3.7-29.3,7.4-43.9,11.1
				c1,0.6,2.1,1.2,3.1,1.7c-6.2-27.3-12.4-54.7-18.7-82c-0.6-2.7-5-2.2-4.9,0.7c1,28.2,1.9,56.5,2.9,84.7c0.1,4.1,0.3,8.2,0.4,12.3
				c0.8-0.8,1.7-1.7,2.5-2.5c-33.7,1.4-67.5,2.7-101.2,4.1c-4.8,0.2-9.7,0.4-14.5,0.6c0.8,0.8,1.7,1.7,2.5,2.5
				c2.4-31.5,4.9-62.9,7.3-94.4c0.3-4.5,0.7-9,1-13.5c0.2-2.8-4.2-3.4-4.9-0.7c-6.4,25.4-12.9,50.8-19.3,76.2
				c0.8-0.6,1.6-1.2,2.4-1.8c-16.7-2-33.3-4-50-6c0.8,0.8,1.7,1.7,2.5,2.5c0.4-27.5,3.7-55,10.7-81.6c3.4-13,7.7-25.9,12.8-38.3
				c2.5-6.2,5.3-12.3,8.3-18.3c1.3-2.6,2.5-5.3,4-7.8c2-3.3,5.6-3.3,9.2-4.3c6.1-1.7,12.2-3.6,18.3-5.7c2.8-1,5.7-2,8.5-3.1
				c0,0,4.8-2.2,3.1-2.2c0.2,0,0.4,0.3,0.6,0.3c1.5,0.3,3.6,1.9,4.9,2.7c3,1.6,6,3.3,9,4.9c6.2,3.4,12.5,6.8,18.7,10.2
				c2.5,1.4,5.9,4.3,8.8,3.3c2-0.7,3.9-2.3,5.7-3.3c3.5-2,7-4.1,10.5-6.1c4.9-2.8,9.7-5.7,14.6-8.5
				C783.8,396.6,781.3,392.3,778.5,393.9z"/>
		</g>
	</g>
	<g>
		<g>
			<path d="M829.7,407.4c11.3-3.4,19.2-11.9,26.4-20.9c5.5-6.9,10.2-14.4,13-22.8c4.8-14.5,2.7-29.6,2.9-44.5
				c0.1-8.9,1.2-17.7,3.7-26.3c1.7-5.9,3.5-12.2,7.5-16.9c4.5-5.3,9.3-10.3,13.9-15.5c14-16.2,26.5-33.6,34.4-53.6
				c3.3-8.3,6.7-17.3,7.7-26.3c1-8.3,0-16.8-2.2-24.8c-5.1-18.5-16.9-34.8-32.4-46c-9.3-6.7-20.3-10.2-31.4-12.9
				c-9.3-2.3-18.9-3.6-28.5-3.9c-15.9-0.4-31.7,2.6-46.3,9c-12.3,5.3-23.5,13-33.1,22.2c-3,2.9-5.8,5.9-8.4,9
				c-0.9,1.1-1.8,2.1-2.6,3.3c-0.6,0.9-0.9,0.8-0.2,0.5c1,0.1,2,0.3,3,0.4l0,0c0.2,0.8,0.4,1.6,0.6,2.4c-0.1,0.8-0.2,0.4,0.1-0.1
				c0.7-1.2,0.3-2.6-0.9-3.4c-6-4-12.2-7.6-18.6-10.8c-2.5-1.2-5,1.8-3,3.9c4.7,5.1,0.8,6.9-4.2,7.9c-5.6,1.2-11.6,1.1-17.3,0.8
				c-16-0.8-32-4.2-47.4-8.9c-11.8-3.6-25-7.9-34.7-15.8c-1.3-1-2.3-2.6-3.9-3c-2.6-0.7-7.3,1-10,1.5c-3.7,0.7-7.3,1.5-10.9,2.5
				c-38.7,10.4-69.5,37.3-83.5,75.1c-5.3,14.2-8.2,29.5-8.5,44.7c-0.2,10.3,0.6,20.9,4.7,30.4c3.6,8.5,4.9,18.8,2.2,27.7
				c-3.2,10.7-13.3,17.1-24.5,15.1c-5.5-1-12.1-2.8-13.6-8.9c-1.8-7,0.2-15.3,0.8-22.3c1.8-18.8,5.6-41.6-11.8-54.3
				c-13.3-9.8-32.6-11.6-48.5-8.7c-3.3,0.6-6.4,1.5-9.5,2.8c-0.8,0.3-1.2,1.4-1.2,2.2c0,5.2,0,10.5,0,15.7c0,1.7,1.6,2.7,3.2,2.4
				c17.2-3.5,41.1-4.5,45,17.3c1.2,6.7,0.5,13.6-0.6,20.3c-1.6,10.1-2.4,19.9-0.9,30.1c3.2,23.1,16.5,44.8,38.2,54.5
				c6.3,2.8,12.8,4.1,19.4,5.8c7.5,1.9,14.9,4.4,22.1,7.3c14.1,5.8,27.4,13.6,39.3,23.2c3,2.5,5.8,5.7,9,7.9c3.3,2.2,8.2,3,12,4.1
				c8.1,2.3,16.4,3.9,24.8,4.8c15.1,1.5,29.5-0.1,44.1-3.6c3.1-0.8,1.8-5.6-1.3-4.8c-13.5,3.3-26.7,4.8-40.6,3.7
				c-7.8-0.7-15.5-2.1-23.1-4.1c-4-1.1-8.9-2-12.6-4c-3.2-1.8-6-5.1-8.9-7.4c-11.1-9-23.4-16.5-36.4-22.4c-7-3.1-14.2-5.8-21.5-7.9
				c-6.9-2-14.1-3.1-20.8-5.6c-24.3-8.9-38.1-33.5-39.6-58.5c-1-15.8,5.7-32,1.3-47.7c-6.3-22.4-32-21.4-50.5-17.7
				c1.1,0.8,2.1,1.6,3.2,2.4c0-5.2,0-10.5,0-15.7c-0.4,0.7-0.8,1.4-1.2,2.2c12.2-5.3,28.3-4.2,40.6-0.2c6.8,2.2,13.6,5.9,17.9,11.7
				c5.7,7.7,5.2,17,4.9,26.1c-0.3,8.9-1.2,17.7-2.1,26.5c-0.5,5.2-1.2,10.8,0.3,15.9c3.4,11.5,19.8,14,29.7,11.4
				c16.1-4.3,21-21.4,19-36.2c-1.3-9.5-6-17.8-7.1-27.4c-2.9-24.8,2.9-51.3,14.8-73c19.1-35.1,54.1-54.3,92.8-59.8
				c-0.8-0.2-1.6-0.4-2.4-0.6c7.2,7.5,17.9,11.7,27.4,15.3c15.1,5.7,31.1,9.7,47.2,11.8c10.9,1.5,23.6,3.1,34.3-0.2
				c8.4-2.6,10.5-9.1,4.2-15.7c-1,1.3-2,2.6-3,3.9c6.5,3.2,12.7,6.8,18.6,10.8c-0.3-1.1-0.6-2.3-0.9-3.4c-0.7,1.2-1,2.5,0.1,3.7
				c0.7,0.8,2.1,0.9,3,0.4c1.3-0.7,1.9-2.1,2.5-3c1.8-2.3,3.7-4.4,5.7-6.5c6.8-7.2,14.5-13.5,23-18.7c29.1-17.7,63.7-18.5,95.6-8.1
				c19.7,6.5,35.3,21.1,44.2,39.9c3.9,8.2,6.4,17.3,6.8,26.4c0.4,8.2-1.6,15.2-3.9,23c-6.3,20.4-17,38.3-30.4,54.8
				c-3.6,4.4-7.3,8.7-11,12.9c-3.9,4.4-9.3,8.8-12.4,13.7c-2.4,3.8-3.7,8.9-5.1,13.2c-1.4,4.5-2.5,9.2-3.3,13.9
				c-2.6,16.4,0.6,32.9-1.7,49.3c-1.2,8.9-4.6,17.2-9.6,24.7c-6.9,10.4-16.5,22.1-28.7,25.8C825.3,403.5,826.6,408.4,829.7,407.4
				L829.7,407.4z"/>
		</g>
	</g>
	<g>
		<g>
			<path d="M738.5,419.9c-0.6,3.5-1.2,7.1-1.8,10.6c-0.3,2,1.7,4.1,3.7,2.8c3.2-1.9,6.3-3.9,9.5-5.8c1.6-1,1.6-3.3,0-4.3
				c-2.6-1.6-5.1-3.2-7.7-4.7c-2.7-1.7-5.3,2.6-2.5,4.3c2.6,1.6,5.1,3.2,7.7,4.7c0-1.4,0-2.9,0-4.3c-3.2,1.9-6.3,3.9-9.5,5.8
				c1.2,0.9,2.4,1.9,3.7,2.8c0.6-3.5,1.2-7.1,1.8-10.6C743.9,418.1,739.1,416.7,738.5,419.9z"/>
		</g>
	</g>
	<g>
		<g>
			<path d="M747.4,454.4c-4.4,2.7-8.9,5.5-13.3,8.2c-1.6,1-1.6,3.3,0,4.3c4.4,2.7,8.9,5.5,13.3,8.2c0.7,0.5,1.8,0.5,2.5,0
				c4.4-2.7,8.9-5.5,13.3-8.2c1.6-1,1.6-3.3,0-4.3c-4.4-2.7-8.9-5.5-13.3-8.2c-2.7-1.7-5.3,2.6-2.5,4.3c4.4,2.7,8.9,5.5,13.3,8.2
				c0-1.4,0-2.9,0-4.3c-4.4,2.7-8.9,5.5-13.3,8.2c0.8,0,1.7,0,2.5,0c-4.4-2.7-8.9-5.5-13.3-8.2c0,1.4,0,2.9,0,4.3
				c4.4-2.7,8.9-5.5,13.3-8.2C752.6,457,750.1,452.7,747.4,454.4z"/>
		</g>
	</g>
	<g>
		<g>
			<path d="M747.4,440.2c-3.8,2.4-7.7,4.7-11.5,7.1c-1.6,1-1.6,3.3,0,4.3c3.8,2.4,7.7,4.7,11.5,7.1c0.7,0.5,1.8,0.5,2.5,0
				c3.8-2.4,7.7-4.7,11.5-7.1c1.6-1,1.6-3.3,0-4.3c-3.8-2.4-7.7-4.7-11.5-7.1c-2.7-1.7-5.3,2.6-2.5,4.3c3.8,2.4,7.7,4.7,11.5,7.1
				c0-1.4,0-2.9,0-4.3c-3.8,2.4-7.7,4.7-11.5,7.1c0.8,0,1.7,0,2.5,0c-3.8-2.4-7.7-4.7-11.5-7.1c0,1.4,0,2.9,0,4.3
				c3.8-2.4,7.7-4.7,11.5-7.1C752.6,442.8,750.1,438.5,747.4,440.2z"/>
		</g>
	</g>
	<g>
		<g>
			<path d="M763.7,431.7c-4.6-2.8-9.2-5.7-13.8-8.5c-0.7-0.5-1.8-0.5-2.5,0c-2.8,1.7-5.8,3.3-8.5,5.2c-2.6,1.8-2.4,3.8-2.9,6.9
				c-0.2,1.1,0.1,2.2,1.1,2.8c3.4,2.1,6.8,4.2,10.3,6.3c0.7,0.5,1.8,0.5,2.5,0c4.6-2.8,9.2-5.7,13.8-8.5c2.7-1.7,0.2-6-2.5-4.3
				c-4.6,2.8-9.2,5.7-13.8,8.5c0.8,0,1.7,0,2.5,0c-3.4-2.1-6.8-4.2-10.3-6.3c0.4,0.9,0.8,1.9,1.1,2.8c0.2-0.9,1.1-3.4,0.7-4.1
				c-0.5-1-1.1,0.8-0.7,0.5c0.6-0.3,1.2-0.7,1.8-1.1c2.4-1.5,4.9-3,7.3-4.5c-0.8,0-1.7,0-2.5,0c4.6,2.8,9.2,5.7,13.8,8.5
				C763.9,437.7,766.4,433.4,763.7,431.7z"/>
		</g>
	</g>
	<g>
		<g>
			<path d="M736.1,494.1c-0.9,0.5-1.7,1.1-2.6,1.6c-1.1,0.7-1.7,2.3-0.9,3.4c2.2,3.2,4.5,6.5,6.7,9.7c0.8,1.1,2.2,1.7,3.4,0.9
				c2.4-1.5,4.8-2.9,7.1-4.4c1.6-1,1.6-3.3,0-4.3c-3.7-2.3-7.5-4.6-11.2-6.9c-2.7-1.7-5.3,2.6-2.5,4.3c3.7,2.3,7.5,4.6,11.2,6.9
				c0-1.4,0-2.9,0-4.3c-2.4,1.5-4.8,2.9-7.1,4.4c1.1,0.3,2.3,0.6,3.4,0.9c-2.2-3.2-4.5-6.5-6.7-9.7c-0.3,1.1-0.6,2.3-0.9,3.4
				c0.9-0.5,1.7-1.1,2.6-1.6C741.4,496.8,738.9,492.4,736.1,494.1z"/>
		</g>
	</g>
	<g>
		<g>
			<path d="M760.8,416.5c-3-1.8-6-3.6-9-5.4c-0.8-0.5-1.8-0.4-2.5,0c-0.5,0.3-1,0.6-1.5,0.9c0.8,0,1.7,0,2.5,0
				c-1.4-0.7-2.6-1.7-4.2-1.2c-1.3,0.4-2.7,1.6-3.9,2.3s-2.4,1.2-2.9,2.6c-0.5,1.2-0.5,3-0.7,4.3c-0.2,1.1,0.1,2.2,1.1,2.8
				c2.6,1.6,5.1,3.2,7.7,4.7c0.7,0.5,1.8,0.5,2.5,0c3.6-2.2,7.3-4.5,10.9-6.7c2.7-1.7,0.2-6-2.5-4.3c-3.6,2.2-7.3,4.5-10.9,6.7
				c0.8,0,1.7,0,2.5,0c-2.6-1.6-5.1-3.2-7.7-4.7c0.4,0.9,0.8,1.9,1.1,2.8c0.1-0.8,0.3-1.7,0.4-2.5c0,0,0.3-1.6,0.3-1.7
				c0.5,0.2-2.2,1.3-0.6,1c1.5-0.3,3.5-2.1,4.8-2.9c-0.8,0-1.7,0-2.5,0c2.5,1.3,3.5,1.6,6,0.2c-0.8,0-1.7,0-2.5,0c3,1.8,6,3.6,9,5.4
				C761,422.4,763.5,418.1,760.8,416.5z"/>
		</g>
	</g>
	<g>
		<g>
			<path d="M760.8,420.8c0.2-0.1,0.4-0.2,0.6-0.4c1-0.6,1.4-1.7,1.1-2.8c-0.7-3.1-1.4-6.3-2.1-9.4c-0.4-1.6-2.3-2.3-3.7-1.5
				c-2.5,1.5-5,2.9-7.5,4.4c-1.6,1-1.6,3.4,0,4.3c3,1.8,6,3.6,9,5.4c2.8,1.7,5.3-2.7,2.5-4.3c-3-1.8-6-3.6-9-5.4c0,1.4,0,2.9,0,4.3
				c2.5-1.5,5-2.9,7.5-4.4c-1.2-0.5-2.4-1-3.7-1.5c0.7,3.1,1.4,6.3,2.1,9.4c0.4-0.9,0.8-1.9,1.1-2.8c-0.2,0.1-0.4,0.2-0.6,0.4
				C755.5,418.2,758,422.5,760.8,420.8z"/>
		</g>
	</g>
	<g>
		<g>
			<path d="M740.2,409.9c-0.3,1.9-0.6,3.8-0.9,5.7c-0.3,2,1.7,4,3.7,2.8c1.8-1.1,3.6-2.2,5.4-3.2c1.6-0.9,1.7-3.4,0-4.3
				c-1.5-0.8-3-1.6-4.4-2.4c-2.8-1.5-5.4,2.8-2.5,4.3c1.5,0.8,3,1.6,4.4,2.4c0-1.4,0-2.9,0-4.3c-1.8,1.1-3.6,2.2-5.4,3.2
				c1.2,0.9,2.4,1.9,3.7,2.8c0.3-1.9,0.6-3.8,0.9-5.7c0.2-1.3-0.3-2.7-1.7-3.1C742.1,407.9,740.4,408.6,740.2,409.9z"/>
		</g>
	</g>
	<g>
		<g>
			<path d="M747.4,427.5c4.6,2.8,9.2,5.7,13.8,8.5c0.7,0.5,1.8,0.5,2.5,0c0.4-0.2,0.7-0.4,1.1-0.7c1-0.6,1.4-1.7,1.1-2.8
				c-0.7-2.9-1.3-5.8-2-8.8c-0.6-2.7-0.6-5.7-3.2-7.3c-0.7-0.5-1.8-0.5-2.5,0c-3.6,2.2-7.3,4.5-10.9,6.7c-2.7,1.7-0.2,6,2.5,4.3
				c3.6-2.2,7.3-4.5,10.9-6.7c-0.8,0-1.7,0-2.5,0c0.3,0.2,0.5,0.3,0.8,0.5c-0.4-0.5-0.8-1-1.1-1.5c1.1,4.7,2.1,9.4,3.2,14
				c0.4-0.9,0.8-1.9,1.1-2.8c-0.4,0.2-0.7,0.4-1.1,0.7c0.8,0,1.7,0,2.5,0c-4.6-2.8-9.2-5.7-13.8-8.5
				C747.2,421.5,744.6,425.8,747.4,427.5z"/>
		</g>
	</g>
	<g>
		<g>
			<path d="M747.4,444.5c3.8,2.4,7.7,4.7,11.5,7.1c0.7,0.5,1.8,0.5,2.5,0c2.1-1.3,4.1-2.5,6.2-3.8c1-0.6,1.4-1.7,1.1-2.8
				c-0.6-2.6-1.2-5.2-1.8-7.8c-0.6-2.7-0.8-4-3.3-5.5c-0.7-0.5-1.8-0.5-2.5,0c-4.6,2.8-9.2,5.7-13.8,8.5c-2.7,1.7-0.2,6,2.5,4.3
				c4.6-2.8,9.2-5.7,13.8-8.5c-0.8,0-1.7,0-2.5,0c0.5,0.3,1,0.6,1.5,0.9c-0.4-0.5-0.8-1-1.1-1.5c0.8,3.6,1.7,7.3,2.5,10.9
				c0.4-0.9,0.8-1.9,1.1-2.8c-2.1,1.3-4.1,2.5-6.2,3.8c0.8,0,1.7,0,2.5,0c-3.8-2.4-7.7-4.7-11.5-7.1
				C747.2,438.5,744.6,442.8,747.4,444.5z"/>
		</g>
	</g>
	<g>
		<g>
			<path d="M759.8,531.1c0.5-1.3,1-2.6,1.6-3.9c0.4-1-0.3-2.3-1.1-2.8c-2.5-1.5-5-3.1-7.4-4.6c-2.1-1.3-4.9,1.3-3.4,3.4
				c2,2.8,3.9,5.7,5.9,8.5c1.8,2.6,6.2,0.1,4.3-2.5c-2-2.8-3.9-5.7-5.9-8.5c-1.1,1.1-2.3,2.3-3.4,3.4c2.5,1.5,5,3.1,7.4,4.6
				c-0.4-0.9-0.8-1.9-1.1-2.8c-0.5,1.3-1,2.6-1.6,3.9c-0.5,1.3,0.5,2.7,1.7,3.1C758.1,533.3,759.3,532.4,759.8,531.1z"/>
		</g>
	</g>
	<g>
		<g>
			<path d="M770.8,453.8c-0.7-3-1.3-5.9-2-8.9c-0.4-1.6-2.3-2.3-3.7-1.5c-2.1,1.3-4.1,2.5-6.2,3.8c-1.6,1-1.6,3.3,0,4.3
				c2.7,1.7,5.5,3.4,8.2,5.1c2.7,1.7,5.3-2.6,2.5-4.3c-2.7-1.7-5.5-3.4-8.2-5.1c0,1.4,0,2.9,0,4.3c2.1-1.3,4.1-2.5,6.2-3.8
				c-1.2-0.5-2.4-1-3.7-1.5c0.7,3,1.3,5.9,2,8.9C766.7,458.3,771.5,457,770.8,453.8z"/>
		</g>
	</g>
	<g>
		<g>
			<path d="M774.6,470.4c-0.8-3.7-1.7-7.3-2.5-11c-0.4-1.6-2.3-2.3-3.7-1.5c-2.6,1.6-5.1,3.2-7.7,4.7c-1.6,1-1.6,3.3,0,4.3
				c3.4,2.1,6.8,4.2,10.2,6.3c2.7,1.7,5.3-2.6,2.5-4.3c-3.4-2.1-6.8-4.2-10.2-6.3c0,1.4,0,2.9,0,4.3c2.6-1.6,5.1-3.2,7.7-4.7
				c-1.2-0.5-2.4-1-3.7-1.5c0.8,3.7,1.7,7.3,2.5,11C770.5,474.8,775.3,473.5,774.6,470.4z"/>
		</g>
	</g>
	<g>
		<g>
			<path d="M734.1,483.3c4.4,2.7,8.9,5.5,13.3,8.2c0.7,0.5,1.8,0.5,2.5,0c4.4-2.7,8.9-5.5,13.3-8.2c1.6-1,1.6-3.3,0-4.3
				c-4.4-2.7-8.9-5.5-13.3-8.2c-0.7-0.5-1.8-0.5-2.5,0c-4.4,2.7-8.9,5.5-13.3,8.2c-2.7,1.7-0.2,6,2.5,4.3c4.4-2.7,8.9-5.5,13.3-8.2
				c-0.8,0-1.7,0-2.5,0c4.4,2.7,8.9,5.5,13.3,8.2c0-1.4,0-2.9,0-4.3c-4.4,2.7-8.9,5.5-13.3,8.2c0.8,0,1.7,0,2.5,0
				c-4.4-2.7-8.9-5.5-13.3-8.2C733.8,477.3,731.3,481.6,734.1,483.3z"/>
		</g>
	</g>
	<g>
		<g>
			<path d="M766.3,434.1c-0.1-0.5-0.2-1-0.4-1.6c-0.4-1.6-2.3-2.3-3.7-1.5c-0.4,0.2-0.7,0.4-1.1,0.7c-1.6,1-1.6,3.3,0,4.3
				c0.5,0.3,1,0.6,1.5,0.9c1.1,0.7,2.8,0.3,3.4-0.9c0.6-1.2,0.3-2.7-0.9-3.4c-0.5-0.3-1-0.6-1.5-0.9c0,1.4,0,2.9,0,4.3
				c0.4-0.2,0.7-0.4,1.1-0.7c-1.2-0.5-2.4-1-3.7-1.5c0.1,0.5,0.2,1,0.4,1.6c0.3,1.3,1.8,2.1,3.1,1.7
				C765.9,436.7,766.6,435.4,766.3,434.1z"/>
		</g>
	</g>
	<g>
		<g>
			<path d="M736.1,498.5c3.7,2.3,7.5,4.6,11.2,6.9c0.7,0.5,1.8,0.5,2.5,0c3.7-2.3,7.5-4.6,11.2-6.9c1.6-1,1.6-3.3,0-4.3
				c-3.7-2.3-7.5-4.6-11.2-6.9c-0.7-0.5-1.8-0.5-2.5,0c-3.7,2.3-7.5,4.6-11.2,6.9c-2.7,1.7-0.2,6,2.5,4.3c3.7-2.3,7.5-4.6,11.2-6.9
				c-0.8,0-1.7,0-2.5,0c3.7,2.3,7.5,4.6,11.2,6.9c0-1.4,0-2.9,0-4.3c-3.7,2.3-7.5,4.6-11.2,6.9c0.8,0,1.7,0,2.5,0
				c-3.7-2.3-7.5-4.6-11.2-6.9C735.9,492.5,733.4,496.8,736.1,498.5z"/>
		</g>
	</g>
	<g>
		<g>
			<path d="M761.1,498.5c4.4-2.7,8.9-5.5,13.3-8.2c1.6-1,1.6-3.3,0-4.3c-3.7-2.3-7.5-4.6-11.2-6.9c-0.7-0.5-1.8-0.5-2.5,0
				c-4.4,2.7-8.9,5.5-13.3,8.2c-1.6,1-1.6,3.3,0,4.3c3.7,2.3,7.5,4.6,11.2,6.9c2.7,1.7,5.3-2.6,2.5-4.3c-3.7-2.3-7.5-4.6-11.2-6.9
				c0,1.4,0,2.9,0,4.3c4.4-2.7,8.9-5.5,13.3-8.2c-0.8,0-1.7,0-2.5,0c3.7,2.3,7.5,4.6,11.2,6.9c0-1.4,0-2.9,0-4.3
				c-4.4,2.7-8.9,5.5-13.3,8.2C755.9,495.8,758.4,500.2,761.1,498.5z"/>
		</g>
	</g>
	<g>
		<g>
			<path d="M762.7,418.4c-0.1-0.3-0.1-0.6-0.2-0.9c-0.4-1.6-2.3-2.3-3.7-1.5c-0.2,0.1-0.4,0.2-0.6,0.4c-1.6,1-1.6,3.3,0,4.3
				c0.3,0.2,0.5,0.3,0.8,0.5c1.1,0.7,2.8,0.3,3.4-0.9c0.6-1.2,0.3-2.7-0.9-3.4c-0.3-0.2-0.5-0.3-0.8-0.5c0,1.4,0,2.9,0,4.3
				c0.2-0.1,0.4-0.2,0.6-0.4c-1.2-0.5-2.4-1-3.7-1.5c0.1,0.3,0.1,0.6,0.2,0.9c0.3,1.3,1.8,2.1,3.1,1.7
				C762.3,421.1,763,419.8,762.7,418.4z"/>
		</g>
	</g>
	<g>
		<g>
			<path d="M747.4,501.1c-2.4,1.5-4.8,2.9-7.1,4.4c-1.1,0.7-1.7,2.3-0.9,3.4c2.8,4,5.5,7.9,8.3,11.9c0.8,1.1,2.2,1.7,3.4,0.9
				c4.2-2.6,8.4-5.2,12.7-7.8c1.6-1,1.6-3.3,0-4.3c-4.6-2.8-9.2-5.7-13.8-8.5c-2.7-1.7-5.3,2.6-2.5,4.3c4.6,2.8,9.2,5.7,13.8,8.5
				c0-1.4,0-2.9,0-4.3c-4.2,2.6-8.4,5.2-12.7,7.8c1.1,0.3,2.3,0.6,3.4,0.9c-2.8-4-5.5-7.9-8.3-11.9c-0.3,1.1-0.6,2.3-0.9,3.4
				c2.4-1.5,4.8-2.9,7.1-4.4C752.6,503.7,750.1,499.4,747.4,501.1z"/>
		</g>
	</g>
	<g>
		<g>
			<path d="M747.4,458.7c4.4,2.7,8.9,5.5,13.3,8.2c0.7,0.5,1.8,0.5,2.5,0c2.6-1.6,5.1-3.2,7.7-4.7c1-0.6,1.4-1.7,1.1-2.8
				c-0.6-2.6-0.6-5.5-2.7-7.2c-2.3-1.9-5.4-3.3-7.9-4.9c-0.7-0.5-1.8-0.5-2.5,0c-3.8,2.4-7.7,4.7-11.5,7.1c-2.7,1.7-0.2,6,2.5,4.3
				c3.8-2.4,7.7-4.7,11.5-7.1c-0.8,0-1.7,0-2.5,0c2.3,1.4,4.7,3.3,7.2,4.4l1,0.6c-0.9-1.5-1.2-1.8-1-1c0.1,0.4,0.2,0.8,0.3,1.2
				c0.1,1.3,0.6,2.6,0.9,3.9c0.4-0.9,0.8-1.9,1.1-2.8c-2.6,1.6-5.1,3.2-7.7,4.7c0.8,0,1.7,0,2.5,0c-4.4-2.7-8.9-5.5-13.3-8.2
				C747.2,452.7,744.6,457,747.4,458.7z"/>
		</g>
	</g>
	<g>
		<g>
			<path d="M749.9,454.4c-3.8-2.4-7.7-4.7-11.5-7.1c-0.7-0.5-1.8-0.5-2.5,0c-2.7,1.7-2.5,4-3,6.9c-0.5,3-1,5.9-1.5,8.9
				c-0.2,1.1,0.1,2.2,1.1,2.8c0.5,0.3,1.1,0.6,1.6,1c0.7,0.5,1.8,0.5,2.5,0c4.4-2.7,8.9-5.5,13.3-8.2c2.7-1.7,0.2-6-2.5-4.3
				c-4.4,2.7-8.9,5.5-13.3,8.2c0.8,0,1.7,0,2.5,0c-0.5-0.3-1.1-0.6-1.6-1c0.4,0.9,0.8,1.9,1.1,2.8c0.8-4.6,1.5-9.1,2.3-13.7
				c-0.4,0.5-0.8,1-1.1,1.5c0.4-0.2,0.7-0.4,1.1-0.7c-0.8,0-1.7,0-2.5,0c3.8,2.4,7.7,4.7,11.5,7.1
				C750.1,460.4,752.6,456.1,749.9,454.4z"/>
		</g>
	</g>
	<g>
		<g>
			<path d="M733.8,448.2c-0.1,0.4-0.1,0.8-0.2,1.2c-0.2,1,0,2,0.9,2.6c0.8,0.6,1.9,0.7,2.8,0.2c0.4-0.2,0.7-0.4,1.1-0.7
				c1.6-1,1.6-3.3,0-4.3c-0.3-0.2-0.6-0.4-0.9-0.5c-1.1-0.7-2.8-0.3-3.4,0.9c-0.6,1.2-0.3,2.7,0.9,3.4c0.3,0.2,0.6,0.4,0.9,0.5
				c0-1.4,0-2.9,0-4.3c-0.4,0.2-0.7,0.4-1.1,0.7c1.2,0.9,2.4,1.9,3.7,2.8c0.1-0.4,0.1-0.8,0.2-1.2c0.1-0.7,0.1-1.3-0.3-1.9
				c-0.3-0.5-0.9-1-1.5-1.1C735.7,446.2,734,446.9,733.8,448.2z"/>
		</g>
	</g>
	<g>
		<g>
			<path d="M747.4,505.4c4.6,2.8,9.2,5.7,13.8,8.5c0.7,0.5,1.8,0.5,2.5,0c2.1-1.3,3.7-2,4.6-4.3c1-2.4,1.9-4.8,2.8-7.1
				c0.4-1-0.3-2.3-1.1-2.8c-3-1.8-5.9-3.6-8.9-5.5c-0.7-0.5-1.8-0.5-2.5,0c-3.7,2.3-7.5,4.6-11.2,6.9c-2.7,1.7-0.2,6,2.5,4.3
				c3.7-2.3,7.5-4.6,11.2-6.9c-0.8,0-1.7,0-2.5,0c3,1.8,5.9,3.6,8.9,5.5c-0.4-0.9-0.8-1.9-1.1-2.8c-0.8,2-1.6,4-2.4,6.1
				c-0.2,0.4-0.4,0.9-0.5,1.3c-0.4,2,0-2.5,0.7-0.7c0,0.1-2.6,1.6-3,1.8c0.8,0,1.7,0,2.5,0c-4.6-2.8-9.2-5.7-13.8-8.5
				C747.2,499.4,744.6,503.7,747.4,505.4z"/>
		</g>
	</g>
	<g>
		<g>
			<path d="M766.7,513.6c0.4-1,0.8-2.1,1.2-3.1c0.4-0.9-0.2-2.1-0.9-2.6c-0.8-0.6-1.9-0.7-2.8-0.2c-1,0.6-2.1,1.3-3.1,1.9
				c-1.6,1-1.6,3.3,0,4.3c0.6,0.4,1.3,0.8,1.9,1.2c1.1,0.7,2.8,0.3,3.4-0.9c0.6-1.2,0.3-2.7-0.9-3.4c-0.6-0.4-1.3-0.8-1.9-1.2
				c0,1.4,0,2.9,0,4.3c1-0.6,2.1-1.3,3.1-1.9c-1.2-0.9-2.4-1.9-3.7-2.8c-0.4,1-0.8,2.1-1.2,3.1c-0.5,1.2,0.5,2.8,1.7,3.1
				C765.1,515.6,766.2,514.9,766.7,513.6z"/>
		</g>
	</g>
	<g>
		<g>
			<path d="M747.6,520.8c1.2,1.8,2.2,3.1,4,4.2c2,1.2,4,2.5,6,3.7c1.5,0.9,3.1-0.1,3.7-1.5c1.8-4.6,3.6-9.1,5.4-13.7
				c0.4-1-0.3-2.3-1.1-2.8c-0.6-0.4-1.3-0.8-1.9-1.2c-0.7-0.5-1.8-0.5-2.5,0c-4.2,2.6-8.4,5.2-12.7,7.8c-2.7,1.7-0.2,6,2.5,4.3
				c4.2-2.6,8.4-5.2,12.7-7.8c-0.8,0-1.7,0-2.5,0c0.6,0.4,1.3,0.8,1.9,1.2c-0.4-0.9-0.8-1.9-1.1-2.8c-1.8,4.6-3.6,9.1-5.4,13.7
				c1.2-0.5,2.4-1,3.7-1.5c-1.8-1.1-3.6-2.2-5.4-3.3c-0.6-0.4-1.3-1-2-1.3c0.8,0.9,1,1.1,0.6,0.5c-0.2-0.3-0.4-0.6-0.6-0.8
				c-0.3-0.4-0.6-0.8-0.8-1.2C750.1,515.6,745.8,518.1,747.6,520.8z"/>
		</g>
	</g>
	<g>
		<g>
			<path d="M749.9,440.2c-3.4-2.1-6.8-4.2-10.3-6.3c-1.3-0.8-3.4-0.1-3.7,1.5c-0.7,4.3-1.4,8.6-2.1,12.9c-0.2,1.1,0.1,2.2,1.1,2.8
				c0.3,0.2,0.6,0.4,0.9,0.5c0.7,0.5,1.8,0.5,2.5,0c3.8-2.4,7.7-4.7,11.5-7.1c2.7-1.7,0.2-6-2.5-4.3c-3.8,2.4-7.7,4.7-11.5,7.1
				c0.8,0,1.7,0,2.5,0c-0.3-0.2-0.6-0.4-0.9-0.5c0.4,0.9,0.8,1.9,1.1,2.8c0.7-4.3,1.4-8.6,2.1-12.9c-1.2,0.5-2.4,1-3.7,1.5
				c3.4,2.1,6.8,4.2,10.3,6.3C750.1,446.2,752.6,441.9,749.9,440.2z"/>
		</g>
	</g>
	<g>
		<g>
			<path d="M749.9,487.2c-4.4-2.7-8.9-5.5-13.3-8.2c-0.7-0.5-1.8-0.5-2.5,0c-1.7,1-4.2,2-5.5,3.5c-1.3,1.4-1.6,5.1-1.6,6.9
				c-0.1,4.7,5.8,7,9.2,9.1c0.7,0.5,1.8,0.5,2.5,0c3.7-2.3,7.5-4.6,11.2-6.9c2.7-1.7,0.2-6-2.5-4.3c-3.7,2.3-7.5,4.6-11.2,6.9
				c0.8,0,1.7,0,2.5,0c-1.7-1-3.4-2.1-5.1-3.1c-0.4-0.2-0.7-0.5-1.1-0.7c-0.8-0.5,0.8,1.1,0.3,0.3c-0.2-0.3-0.5-1.1-0.9-1.3
				c-0.4-0.7-0.4-0.5-0.2,0.4c0,0.9,0.1,1.1,0.1,0.5c0.5-0.6,0.4-2.4,0.5-3.2c0.1-0.5,0.3-1.1,0.3-1.5c-0.2-1.6-0.6,1.2-0.9,0.8
				c0.1,0.1,4.4-2.7,4.9-3c-0.8,0-1.7,0-2.5,0c4.4,2.7,8.9,5.5,13.3,8.2C750.1,493.2,752.6,488.9,749.9,487.2z"/>
		</g>
	</g>
	<g>
		<g>
			<path d="M728.7,493.5c1.3,1.9,2.6,3.8,3.9,5.6c0.8,1.1,2.2,1.7,3.4,0.9c0.9-0.5,1.7-1.1,2.6-1.6c1.6-1,1.6-3.3,0-4.3
				c-2.2-1.3-4.4-2.7-6.5-4c-2.7-1.7-5.3,2.6-2.5,4.3c2.2,1.3,4.4,2.7,6.5,4c0-1.4,0-2.9,0-4.3c-0.9,0.5-1.7,1.1-2.6,1.6
				c1.1,0.3,2.3,0.6,3.4,0.9c-1.3-1.9-2.6-3.8-3.9-5.6c-0.8-1.1-2.2-1.6-3.4-0.9C728.5,490.8,727.9,492.4,728.7,493.5z"/>
		</g>
	</g>
	<g>
		<g>
			<path d="M749.9,470.8c-4.4-2.7-8.9-5.5-13.3-8.2c-0.7-0.5-1.8-0.5-2.5,0c-3,1.9-3.2,3.1-3.7,6.4c-0.5,3-1,6-1.5,9
				c-0.2,1.1,0.1,2.2,1.1,2.8c1.4,0.8,2.7,1.7,4.1,2.5c0.7,0.5,1.8,0.5,2.5,0c4.4-2.7,8.9-5.5,13.3-8.2c2.7-1.7,0.2-6-2.5-4.3
				c-4.4,2.7-8.9,5.5-13.3,8.2c0.8,0,1.7,0,2.5,0c-1.4-0.8-2.7-1.7-4.1-2.5c0.4,0.9,0.8,1.9,1.1,2.8c0.7-4.2,1.4-8.5,2.1-12.7
				c-0.4,0.5-0.8,1-1.1,1.5c0.6-0.4,1.3-0.8,1.9-1.2c-0.8,0-1.7,0-2.5,0c4.4,2.7,8.9,5.5,13.3,8.2
				C750.1,476.8,752.6,472.5,749.9,470.8z"/>
		</g>
	</g>
	<g>
		<g>
			<path d="M728.9,478c-0.3,1.9-0.6,3.7-0.9,5.6c-0.3,2,1.7,4.1,3.7,2.8c1.7-1,3.3-2.1,5-3.1c1.6-1,1.6-3.3,0-4.3
				c-1.4-0.8-2.7-1.7-4.1-2.5c-2.7-1.7-5.3,2.6-2.5,4.3c1.4,0.8,2.7,1.7,4.1,2.5c0-1.4,0-2.9,0-4.3c-1.7,1-3.3,2.1-5,3.1
				c1.2,0.9,2.4,1.9,3.7,2.8c0.3-1.9,0.6-3.7,0.9-5.6c0.2-1.3-0.3-2.7-1.7-3.1C730.7,475.9,729.1,476.7,728.9,478z"/>
		</g>
	</g>
	<g>
		<g>
			<path d="M731.3,463.1c-0.1,0.7-0.2,1.4-0.4,2.2c-0.2,1,0,2,0.9,2.6c0.8,0.6,1.9,0.7,2.8,0.2c0.6-0.4,1.3-0.8,1.9-1.2
				c1.6-1,1.6-3.3,0-4.3c-0.5-0.3-1.1-0.6-1.6-1c-1.1-0.7-2.8-0.3-3.4,0.9c-0.6,1.2-0.3,2.7,0.9,3.4c0.5,0.3,1.1,0.6,1.6,1
				c0-1.4,0-2.9,0-4.3c-0.6,0.4-1.3,0.8-1.9,1.2c1.2,0.9,2.4,1.9,3.7,2.8c0.1-0.7,0.2-1.4,0.4-2.2c0.1-0.7,0.1-1.3-0.3-1.9
				c-0.3-0.5-0.9-1-1.5-1.1C733.2,461.1,731.6,461.7,731.3,463.1z"/>
		</g>
	</g>
	<g>
		<g>
			<path d="M747.4,475.1c4.4,2.7,8.9,5.5,13.3,8.2c0.7,0.5,1.8,0.5,2.5,0c3.7-2.3,7.3-4.5,11-6.8c1-0.6,1.4-1.7,1.1-2.8
				c-0.7-3.1-1-4.3-3.7-5.9c-2.8-1.7-5.6-3.5-8.4-5.2c-0.7-0.5-1.8-0.5-2.5,0c-4.4,2.7-8.9,5.5-13.3,8.2c-2.7,1.7-0.2,6,2.5,4.3
				c4.4-2.7,8.9-5.5,13.3-8.2c-0.8,0-1.7,0-2.5,0c2.4,1.5,4.7,2.9,7.1,4.4c1,0.6,2,1.3,3.1,1.9c-1.1-0.6-0.8-1.9-0.8-0.2
				c0,0.7,0.3,1.4,0.5,2.1c0.4-0.9,0.8-1.9,1.1-2.8c-3.7,2.3-7.3,4.5-11,6.8c0.8,0,1.7,0,2.5,0c-4.4-2.7-8.9-5.5-13.3-8.2
				C747.2,469.1,744.6,473.4,747.4,475.1z"/>
		</g>
	</g>
	<g>
		<g>
			<path d="M760.7,483.3c3.7,2.3,7.5,4.6,11.2,6.9c0.7,0.5,1.8,0.5,2.5,0c2.7-1.7,3.7-4.2,3-7.2c-0.7-3.1-1.4-6.2-2.1-9.3
				c-0.4-1.6-2.3-2.3-3.7-1.5c-3.7,2.3-7.3,4.5-11,6.8c-2.7,1.7-0.2,6,2.5,4.3c3.7-2.3,7.3-4.5,11-6.8c-1.2-0.5-2.4-1-3.7-1.5
				c0.5,2.3,1,4.6,1.6,6.9c0.2,1.1,0.3,2.4,0.8,3.4c0.4,0.9,0.5-1-0.1-0.5c-0.4,0.3-0.5,1.3-0.7,1.8c0.4-0.5,0.8-1,1.1-1.5
				c-0.4,0.3-0.9,0.5-1.3,0.8c0.8,0,1.7,0,2.5,0c-3.7-2.3-7.5-4.6-11.2-6.9C760.5,477.3,758,481.6,760.7,483.3z"/>
		</g>
	</g>
	<g>
		<g>
			<path d="M776.4,489.2c0.2-0.4,0.3-0.8,0.5-1.3c0.4-0.9-0.2-2.1-0.9-2.6c-0.8-0.6-1.9-0.7-2.8-0.2c-0.4,0.3-0.9,0.5-1.3,0.8
				c-1.6,1-1.6,3.3,0,4.3c0.3,0.2,0.5,0.3,0.8,0.5c1.1,0.7,2.8,0.3,3.4-0.9c0.6-1.2,0.3-2.7-0.9-3.4c-0.3-0.2-0.5-0.3-0.8-0.5
				c0,1.4,0,2.9,0,4.3c0.4-0.3,0.9-0.5,1.3-0.8c-1.2-0.9-2.4-1.9-3.7-2.8c-0.2,0.4-0.3,0.8-0.5,1.3c-0.2,0.6,0,1.4,0.3,1.9
				s0.9,1,1.5,1.1C774.8,491.3,775.9,490.5,776.4,489.2z"/>
		</g>
	</g>
	<g>
		<g>
			<path d="M758.6,498.5c3,1.8,5.9,3.6,8.9,5.5c1.5,0.9,3.1-0.1,3.7-1.5c1.7-4.4,3.5-8.8,5.2-13.2c0.4-1-0.3-2.3-1.1-2.8
				c-0.3-0.2-0.5-0.3-0.8-0.5c-0.7-0.5-1.8-0.5-2.5,0c-4.4,2.7-8.9,5.5-13.3,8.2c-2.7,1.7-0.2,6,2.5,4.3c4.4-2.7,8.9-5.5,13.3-8.2
				c-0.8,0-1.7,0-2.5,0c0.3,0.2,0.5,0.3,0.8,0.5c-0.4-0.9-0.8-1.9-1.1-2.8c-1.7,4.4-3.5,8.8-5.2,13.2c1.2-0.5,2.4-1,3.7-1.5
				c-3-1.8-5.9-3.6-8.9-5.5C758.4,492.5,755.9,496.8,758.6,498.5z"/>
		</g>
	</g>
	<g>
		<g>
			<path d="M742.2,399.1c-3.5-5.9-7-11.8-10.5-17.7c-0.7-1.2-2.2-1.6-3.4-0.9c-6.2,3.7-12.7,6.7-19.4,9.5c-1.8,0.8-2.7,3.4-0.6,4.6
				c11,6,22.1,12.1,33.1,18.1c2.8,1.5,5.4-2.8,2.5-4.3c-11-6-22.1-12.1-33.1-18.1c-0.2,1.5-0.4,3-0.6,4.6c7.1-2.9,14-6.1,20.6-10
				c-1.1-0.3-2.3-0.6-3.4-0.9c3.5,5.9,7,11.8,10.5,17.7C739.5,404.4,743.8,401.9,742.2,399.1L742.2,399.1z"/>
		</g>
	</g>
	<g>
		<g>
			<path d="M757.3,400.5c-1.7,3.5-2.6,5.2-1.7,9c0.4,1.6,2.3,2.3,3.7,1.5c7.3-4.2,14.5-8.5,21.8-12.7c1.7-1,1.6-3.3,0-4.3
				c-4.4-2.8-8.5-6-12.3-9.6c-1.1-1-3.2-1-3.9,0.5C762.3,390.1,759.8,395.3,757.3,400.5c-1.4,2.9,2.9,5.4,4.3,2.5
				c2.5-5.2,5-10.4,7.5-15.6c-1.3,0.2-2.6,0.3-3.9,0.5c4.1,3.9,8.6,7.3,13.3,10.3c0-1.4,0-2.9,0-4.3c-7.3,4.2-14.5,8.5-21.8,12.7
				c1.2,0.5,2.4,1,3.7,1.5c-0.1-0.5-0.1-1.3-0.4-1.8c-0.7-1.3-0.4,0.8-0.3,0.5c0.8-1.1,1.3-2.7,1.9-3.9
				C763,400.1,758.7,397.6,757.3,400.5z"/>
		</g>
	</g>
	<g>
		<g>
			<path d="M745.4,360.5c0.1,2.8-0.9,5.2-2.4,7.5c-1.1,1.7,0.4,3.6,2.2,3.8c2.8,0.2,5.6,0.4,8.3,0.6c1.9,0.1,3.2-2.2,2.2-3.8
				c-2-3.1-3.9-6.2-5.6-9.4c-1.5-2.8-5.8-0.3-4.3,2.5c1.7,3.2,3.6,6.4,5.6,9.4c0.7-1.3,1.4-2.5,2.2-3.8c-2.8-0.2-5.6-0.4-8.3-0.6
				c0.7,1.3,1.4,2.5,2.2,3.8c1.9-3,3.2-6.4,3.1-10.1C750.4,357.3,745.4,357.3,745.4,360.5z"/>
		</g>
	</g>
	<g>
		<g>
			<path d="M764.2,384.1c-4.8-3.1-9.5-6.2-14.3-9.3c-0.7-0.5-1.8-0.5-2.5,0c-4.8,3.1-9.5,6.2-14.3,9.4c-1.6,1-1.6,3.3,0,4.3
				c4.8,2.9,9.5,5.9,14.3,8.8c0.7,0.5,1.8,0.5,2.5,0c4.8-2.9,9.5-5.9,14.3-8.8c2.7-1.7,0.2-6-2.5-4.3c-4.8,2.9-9.5,5.9-14.3,8.8
				c0.8,0,1.7,0,2.5,0c-4.8-2.9-9.5-5.9-14.3-8.8c0,1.4,0,2.9,0,4.3c4.8-3.1,9.5-6.2,14.3-9.4c-0.8,0-1.7,0-2.5,0
				c4.8,3.1,9.5,6.2,14.3,9.3C764.4,390.2,766.9,385.9,764.2,384.1z"/>
		</g>
	</g>
	<g>
		<g>
			<path d="M741.7,410.8c1.9,1.1,3.8,2.3,5.7,3.4c0.8,0.5,1.8,0.5,2.5,0c3-1.8,5.9-3.6,8.9-5.3c1-0.6,1.4-1.7,1.1-2.8
				c-0.1-0.6-0.8,1.3-0.2,0.8c0.3-0.2,0.5-1.1,0.7-1.4c0.4-0.8,0.8-1.7,1.2-2.5c0.6-1.2,0.3-2.7-0.9-3.4c-3.6-2.2-7.2-4.4-10.8-6.7
				c-0.7-0.5-1.8-0.5-2.5,0c-2.9,1.8-5.8,3.6-8.6,5.3c-2.7,1.7-0.2,6,2.5,4.3c2.9-1.8,5.8-3.6,8.6-5.3c-0.8,0-1.7,0-2.5,0
				c3.6,2.2,7.2,4.4,10.8,6.7c-0.3-1.1-0.6-2.3-0.9-3.4c-1,2.1-2.8,4.5-2.2,6.9c0.4-0.9,0.8-1.9,1.1-2.8c-3,1.8-5.9,3.6-8.9,5.3
				c0.8,0,1.7,0,2.5,0c-1.9-1.1-3.8-2.3-5.7-3.4C741.4,404.8,738.9,409.1,741.7,410.8L741.7,410.8z"/>
		</g>
	</g>
	<g>
		<g>
			<path d="M745.8,415.2c0.6,0.4,1.3,0.7,1.9,1.1c1.6,0.8,2.8-0.1,4.1-0.9c1.6-1,1.6-3.4,0-4.3c-0.6-0.4-1.2-0.8-1.9-1.1
				c-0.8-0.5-1.8-0.5-2.5,0c-0.5,0.3-1.1,0.6-1.6,1c-1.1,0.7-1.6,2.3-0.9,3.4c0.7,1.1,2.2,1.6,3.4,0.9c0.5-0.3,1.1-0.6,1.6-1
				c-0.8,0-1.7,0-2.5,0c0.6,0.4,1.2,0.8,1.9,1.1c0-1.4,0-2.9,0-4.3c-0.5,0.3-1,0.6-1.5,0.9c0.8,0,1.7,0,2.5,0
				c-0.6-0.4-1.3-0.7-1.9-1.1c-1.1-0.6-2.8-0.3-3.4,0.9C744.3,412.9,744.6,414.5,745.8,415.2z"/>
		</g>
	</g>
	<g>
		<g>
			<path d="M747.4,414.2c0.6,0.4,1.2,0.8,1.9,1.1c0.8,0.5,1.8,0.4,2.5,0c2.5-1.5,5-2.9,7.5-4.4c1-0.6,1.4-1.7,1.1-2.8
				c-0.2-0.7-0.3-1.4-0.5-2.1c-0.4-1.6-2.3-2.3-3.7-1.5c-3,1.8-5.9,3.6-8.9,5.3c-2.8,1.7-0.2,6,2.5,4.3c3-1.8,5.9-3.6,8.9-5.3
				c-1.2-0.5-2.4-1-3.7-1.5c0.2,0.7,0.3,1.4,0.5,2.1c0.4-0.9,0.8-1.9,1.1-2.8c-2.5,1.5-5,2.9-7.5,4.4c0.8,0,1.7,0,2.5,0
				c-0.6-0.4-1.2-0.8-1.9-1.1C747.1,408.2,744.6,412.6,747.4,414.2z"/>
		</g>
	</g>
	<g>
		<g>
			<path d="M749.9,409.9c-1.9-1.1-3.8-2.3-5.7-3.4c-1.3-0.8-3.4-0.1-3.7,1.5c-0.1,0.7-0.2,1.3-0.3,2c-0.2,1.1,0.1,2.3,1.1,2.8
				c1.2,0.7,2.5,1.4,3.7,2c1,0.6,2,1,3.2,0.4c0.5-0.3,1.1-0.6,1.6-1c2.8-1.7,0.2-6-2.5-4.3c-0.5,0.3-1.1,0.6-1.6,1
				c0.8,0,1.7,0,2.5,0c-1.5-0.8-3-1.6-4.4-2.4c0.4,0.9,0.8,1.9,1.1,2.8c0.1-0.7,0.2-1.3,0.3-2c-1.2,0.5-2.4,1-3.7,1.5
				c1.9,1.1,3.8,2.3,5.7,3.4C750.1,415.9,752.7,411.6,749.9,409.9z"/>
		</g>
	</g>
	<g>
		<g>
			<path d="M733.1,384.1c-0.7,0.4-1.3,0.9-2,1.3c-1.1,0.7-1.6,2.2-0.9,3.4c2.5,4.3,5.1,8.6,7.6,12.8c0.7,1.1,2.3,1.6,3.4,0.9
				c2.9-1.8,5.8-3.6,8.6-5.3c1.6-1,1.6-3.3,0-4.3c-4.8-2.9-9.5-5.9-14.3-8.8c-2.7-1.7-5.3,2.6-2.5,4.3c4.8,2.9,9.5,5.9,14.3,8.8
				c0-1.4,0-2.9,0-4.3c-2.9,1.8-5.8,3.6-8.6,5.3c1.1,0.3,2.3,0.6,3.4,0.9c-2.5-4.3-5.1-8.6-7.6-12.8c-0.3,1.1-0.6,2.3-0.9,3.4
				c0.7-0.4,1.3-0.9,2-1.3C738.3,386.7,735.8,382.4,733.1,384.1z"/>
		</g>
	</g>
	<g>
		<g>
			<path d="M767.3,382.9c-3.6-3.6-6.8-7.5-9.8-11.6c-0.8-1.1-2.2-1.7-3.4-0.9c-2.2,1.4-4.4,2.9-6.6,4.3c-1.6,1.1-1.6,3.3,0,4.3
				c4.8,3.1,9.5,6.2,14.3,9.3c0.7,0.5,1.8,0.4,2.5,0c0.9-0.5,1.7-1.1,2.6-1.6c2.7-1.7,0.2-6-2.5-4.3c-0.9,0.5-1.7,1.1-2.6,1.6
				c0.8,0,1.7,0,2.5,0c-4.8-3.1-9.5-6.2-14.3-9.3c0,1.4,0,2.9,0,4.3c2.2-1.4,4.4-2.9,6.6-4.3c-1.1-0.3-2.3-0.6-3.4-0.9
				c3.2,4.5,6.7,8.7,10.6,12.6C766,388.8,769.5,385.2,767.3,382.9z"/>
		</g>
	</g>
	<g>
		<g>
			<path d="M735.6,388.4c4.8-3.1,9.5-6.2,14.3-9.4c1.6-1.1,1.6-3.3,0-4.3c-2.1-1.4-4.2-2.7-6.3-4.1c-0.9-0.6-2.3-0.4-3,0.4
				c-3.6,3.8-7.9,6.8-12.4,9.5c-1.1,0.7-1.6,2.2-0.9,3.4c1.3,2.2,3.6,3.2,5.7,4.4c2.7,1.7,5.3-2.6,2.5-4.3c-0.9-0.6-1.9-1.1-2.8-1.7
				c-0.5-0.3-1-0.5-1.4-0.9c0.6,0.5,0.8,0.8,0.2-0.1c-0.3,1.1-0.6,2.3-0.9,3.4c4.8-2.9,9.5-6.2,13.4-10.3c-1,0.1-2,0.3-3,0.4
				c2.1,1.4,4.2,2.7,6.3,4.1c0-1.4,0-2.9,0-4.3c-4.8,3.1-9.5,6.2-14.3,9.4C730.4,385.9,732.9,390.2,735.6,388.4z"/>
		</g>
	</g>
	<g>
		<g>
			<path d="M749.9,379.1c2.2-1.4,4.4-2.9,6.6-4.3c1.1-0.7,1.7-2.3,0.9-3.4c-1.2-1.7-1.9-3.6-4.1-3.9c-1.3-0.2-2.7-0.2-4-0.3
				c-1.3-0.1-2.6-0.4-3.9-0.3c-2.3,0.1-3.4,2.6-4.8,4.2c-1.1,1.2-0.9,3,0.5,3.9c2.1,1.4,4.2,2.7,6.3,4.1c2.7,1.8,5.2-2.6,2.5-4.3
				c-2.1-1.4-4.2-2.7-6.3-4.1c0.2,1.3,0.3,2.6,0.5,3.9c1.1-1.3,2.2-2.6,3.2-4c-0.7,0.4-1.4,0.8-2.2,1.2c2.8,0.2,5.6,0.4,8.3,0.6
				c-0.7-0.4-1.4-0.8-2.2-1.2c0.6,0.9,1.2,1.8,1.8,2.6c0.3-1.1,0.6-2.3,0.9-3.4c-2.2,1.4-4.4,2.9-6.6,4.3
				C744.7,376.5,747.2,380.9,749.9,379.1z"/>
		</g>
	</g>
	<g>
		<g>
			<path d="M761.7,388.4c1,0.7,2,1.3,3,2c1.1,0.7,2.9,0.3,3.4-0.9c0.3-0.7,0.7-1.4,1-2.1c0.5-1,0.5-2.2-0.4-3c-0.5-0.5-1-1-1.5-1.5
				c-0.8-0.8-2.1-1-3-0.4c-0.9,0.5-1.7,1.1-2.6,1.6c-1.1,0.7-1.6,2.2-0.9,3.4c0.7,1.1,2.3,1.6,3.4,0.9c0.9-0.5,1.7-1.1,2.6-1.6
				c-1-0.1-2-0.3-3-0.4c0.5,0.5,1,1,1.5,1.5c-0.1-1-0.3-2-0.4-3c-0.3,0.7-0.7,1.4-1,2.1c1.1-0.3,2.3-0.6,3.4-0.9c-1-0.7-2-1.3-3-2
				c-1.1-0.7-2.8-0.3-3.4,0.9C760.1,386.3,760.5,387.7,761.7,388.4z"/>
		</g>
	</g>
	<g>
		<g>
			<path d="M761.6,403c2.2-4.5,4.3-9,6.5-13.5c0.6-1.3,0.3-2.6-0.9-3.4c-1-0.7-2-1.3-3-2c-0.7-0.5-1.8-0.4-2.5,0
				c-4.8,2.9-9.5,5.9-14.3,8.8c-1.6,1-1.6,3.3,0,4.3c3.6,2.2,7.2,4.4,10.8,6.7c2.7,1.7,5.3-2.6,2.5-4.3c-3.6-2.2-7.2-4.4-10.8-6.7
				c0,1.4,0,2.9,0,4.3c4.8-2.9,9.5-5.9,14.3-8.8c-0.8,0-1.7,0-2.5,0c1,0.7,2,1.3,3,2c-0.3-1.1-0.6-2.3-0.9-3.4
				c-2.2,4.5-4.3,9-6.5,13.5C755.9,403.4,760.2,405.9,761.6,403z"/>
		</g>
	</g>
	<g>
		<g>
			<path d="M727.9,384.9c0.8,1.3,1.6,2.6,2.3,3.9c0.7,1.1,2.3,1.6,3.4,0.9c0.7-0.4,1.3-0.9,2-1.3c1.6-1,1.6-3.3,0-4.3
				c-1.4-0.9-2.9-1.8-4.3-2.6c-1.1-0.7-2.8-0.2-3.4,0.9c-0.7,1.2-0.3,2.7,0.9,3.4c1.4,0.9,2.9,1.8,4.3,2.6c0-1.4,0-2.9,0-4.3
				c-0.7,0.4-1.3,0.9-2,1.3c1.1,0.3,2.3,0.6,3.4,0.9c-0.8-1.3-1.6-2.6-2.3-3.9C730.6,379.6,726.3,382.1,727.9,384.9z"/>
		</g>
	</g>
	<g>
		<g>
			<path d="M778.5,398.3c15.2,9.2,33.7,13.8,51.1,9.2c3.1-0.8,1.8-5.6-1.3-4.8c-16.2,4.3-33.2-0.2-47.3-8.7
				C778.3,392.3,775.8,396.6,778.5,398.3L778.5,398.3z"/>
		</g>
	</g>
	<g>
		<g>
			<g>
				<path d="M727.9,118c-0.7-0.4-1.4-0.7-2.1-1.1c0.4,0.7,0.8,1.4,1.2,2.2c0,1.2,0.5-1.5,0.7-2.1c0.6-2.1,1.2-4.3,1.9-6.4
					c0.9-3,1.8-6.1,2.6-9.1c0.5-1.8-1.3-3.6-3.1-3.1c-12.6,3.7-28.3,0.5-40.8-1.9c-13.8-2.7-29-7-40.4-15.7c-1.2-0.9-3.4,0-3.7,1.5
					c-1,5.8-3,12.1-3,18c0.8-0.8,1.7-1.7,2.5-2.5c-6.5,0.2-25,1.3-20.9,12.4c3.3,8.9,16.5,13.9,24.3,17.2
					c16.6,7,34.4,11.6,52.3,14.1c11.6,1.6,26.3,3.9,37.5-0.9c3.3-1.4,6.3-4,6-7.9C742.3,125.6,733.2,120.9,727.9,118
					c-2.8-1.6-5.3,2.8-2.5,4.3c2.7,1.5,15.5,8,11.6,12.5c-2.6,3-10,3-13.5,3.1c-15.9,0.7-32.1-2.3-47.4-6.3
					c-13.9-3.6-28.4-8.1-40.7-15.9c-2.2-1.4-8-4.8-8.1-8c-0.1-5.2,13.4-5,16.4-5.1c1.4,0,2.5-1.1,2.5-2.5c0,1.2,0.3-1.8,0.4-2.3
					c0.3-1.9,0.6-3.8,1-5.7c0.5-2.9,1-5.7,1.5-8.6c-1.2,0.5-2.4,1-3.7,1.5c12.2,9.2,28.7,13.8,43.4,16.5c12.9,2.4,28.7,5.4,41.6,1.6
					c-1-1-2.1-2.1-3.1-3.1c-1,3.4-1.9,6.7-2.9,10.1c-0.8,2.7-2.4,6.1-2.4,8.9c0,0.8,0.5,1.8,1.2,2.2s1.4,0.7,2.1,1.1
					C728.2,123.8,730.7,119.5,727.9,118z"/>
			</g>
		</g>
		<g>
			<g>
				<path d="M641.4,99.5c-0.9,5.3,4.8,8.8,8.7,11.1c8.9,5.3,19.3,8.5,29.3,10.9c10.7,2.5,21.9,4.3,32.9,3.9
					c4.8-0.2,12.6-0.4,14.6-5.8c1.1-3-3.7-4.3-4.8-1.3s-12.1,2.2-14.6,2.1c-9-0.3-18-1.7-26.8-3.7c-8.1-1.9-16.2-4.4-23.7-8
					c-2-1-11.2-5-10.8-7.8C646.7,97.7,641.9,96.3,641.4,99.5L641.4,99.5z"/>
			</g>
		</g>
		<g>
			<g>
				<path d="M735.5,90.1c2.5-8.5,4.9-17,7.4-25.6c0.3-1.1-0.2-2.2-1.1-2.8c-25.8-18.4-56.6-25.1-87.9-22.9c-1,0.1-2.2,0.7-2.4,1.8
					c-1.7,10-3.4,20-5.1,30c-0.2,1.2,0.2,2.1,1.1,2.8c12.1,9.2,28.6,13.7,43.3,16.5c13.4,2.5,29.5,5.5,43,1.8
					c3.1-0.8,1.8-5.7-1.3-4.8c-5.4,1.5-11.2,1.3-16.7,1c-8.5-0.4-17.1-1.6-25.5-3.2c-13.8-2.7-28.9-7-40.3-15.6
					c0.4,0.9,0.8,1.9,1.1,2.8c1.7-10,3.4-20,5.1-30c-0.8,0.6-1.6,1.2-2.4,1.8c30.5-2.2,60.2,4.3,85.4,22.2c-0.4-0.9-0.8-1.9-1.1-2.8
					c-2.5,8.5-4.9,17-7.4,25.6C729.7,91.8,734.6,93.2,735.5,90.1z"/>
			</g>
		</g>
		<g>
			<path d="M729.8,100.7l3.3-11.3c-7.4,2.2-24.4,1.5-43.5-2.2c-17.8-3.5-33.8-10.4-40.9-15.9l-2,11.5c7,5.5,22.6,12.3,40,15.7
				C705.7,102.4,722.6,103,729.8,100.7z"/>
			<g>
				<path d="M732.2,101.4c1.1-3.8,2.2-7.5,3.3-11.3c0.5-1.8-1.3-3.6-3.1-3.1c-5.4,1.5-11.2,1.3-16.7,1c-8.5-0.4-17.1-1.6-25.5-3.2
					c-13.8-2.7-28.9-7-40.3-15.6c-1.2-0.9-3.4,0-3.7,1.5c-0.7,3.8-1.3,7.7-2,11.5c-0.2,1.2,0.2,2.1,1.1,2.8
					c12.2,9.2,28.7,13.8,43.4,16.5c12.9,2.4,28.7,5.4,41.6,1.6c3.1-0.9,1.8-5.7-1.3-4.8c-12.6,3.7-28.3,0.5-40.8-1.9
					c-13.8-2.7-29-7-40.4-15.7c0.4,0.9,0.8,1.9,1.1,2.8c0.7-3.8,1.3-7.7,2-11.5c-1.2,0.5-2.4,1-3.7,1.5
					c12.1,9.2,28.6,13.7,43.3,16.5c13.4,2.5,29.5,5.5,43,1.8c-1-1-2.1-2.1-3.1-3.1c-1.1,3.8-2.2,7.5-3.3,11.3
					C726.5,103.2,731.3,104.5,732.2,101.4z"/>
			</g>
		</g>
	</g>
	<g>
		<g>
			<path d="M692,596.3c33.7-1.4,67.5-2.7,101.2-4.1c4.8-0.2,9.7-0.4,14.5-0.6c-0.8-0.8-1.7-1.7-2.5-2.5
				c5.2,43.2,10.5,86.4,15.7,129.6c0.7,6,1.5,12.1,2.2,18.1c1.1-0.8,2.1-1.6,3.2-2.4c-19.5-3.9-39-7.9-58.5-11.8
				c-5.5-1.1-11.3-2.8-16.9-3.3c-9.4-0.8-19.1-0.5-28.5-0.7c-9.9-0.3-19.9-0.5-29.8-0.8c0.8,0.6,1.6,1.2,2.4,1.8
				c-9.1-41.3-11.5-84-0.6-125.2c0.8-3.1-4-4.4-4.8-1.3c-11.2,42.1-8.8,85.7,0.6,127.8c0.2,1.1,1.4,1.8,2.4,1.8
				c18.9,0.5,37.7,1,56.6,1.4c0.7,0,1.4,0,2,0.1c-1.5-0.1,0.8,0.2,1.1,0.3c3.6,0.8,7.3,1.5,11,2.2c12.2,2.5,24.3,4.9,36.5,7.4
				c8.4,1.7,16.8,3.4,25.2,5.1c1.4,0.3,3.4-0.7,3.2-2.4c-5.2-43.2-10.5-86.4-15.7-129.6c-0.7-6-1.5-12.1-2.2-18.1
				c-0.2-1.3-1-2.6-2.5-2.5c-33.7,1.4-67.5,2.7-101.2,4.1c-4.8,0.2-9.7,0.4-14.5,0.6C688.8,591.4,688.8,596.4,692,596.3z"/>
		</g>
	</g>
	<g>
		<g>
			<path d="M753.7,721.7c-0.9-25.4-1.8-50.7-2.8-76.1c-0.1-3.6-0.3-7.3-0.4-10.9c-0.1-3.2-5.1-3.2-5,0c0.9,25.4,1.8,50.7,2.8,76.1
				c0.1,3.6,0.3,7.3,0.4,10.9C748.8,725,753.8,725,753.7,721.7L753.7,721.7z"/>
		</g>
	</g>
	<g>
		<g>
			<g>
				<path d="M693.6,738.8c0.1,5.2,2.8,9.7,8.3,10.4c2.4,0.3,4.8,0.3,7.2,0.5c9.5,0.6,19,1.2,28.6,1.8c2,0.1,4.2,0.5,6.2,0.4
					c5.4-0.2,9.1-4.8,8.8-10.1c-0.3-6.9-2-13.9-2.9-20.7c-0.2-1.1-1.4-1.8-2.4-1.8c-16.8,0-33.5,0-50.3,0.1c-1.4,0-2.4,1.1-2.5,2.5
					C694.2,727.5,693.9,733.1,693.6,738.8c-0.2,3.2,4.8,3.2,5,0c0.3-5.7,0.6-11.4,0.9-17c-0.8,0.8-1.7,1.7-2.5,2.5
					c16.8,0,33.5,0,50.3-0.1c-0.8-0.6-1.6-1.2-2.4-1.8c0.9,6.1,1.7,12.1,2.6,18.2c1,7.1-5.3,6.2-10.2,5.8c-7.7-0.5-15.4-1-23.1-1.5
					c-3-0.2-6.1-0.4-9.1-0.6c-3.6-0.2-6.3-0.4-6.4-5.6C698.5,735.6,693.5,735.6,693.6,738.8z"/>
			</g>
		</g>
		<g>
			<path d="M737.6,740.2c-2.8,0-4.2,3.7-5.5,5c-0.1-3.2-3.7-11.2-8.2-11.2c-3.1,0-9,6.7-10.4,8.6c-0.1-3.5-3.5-11.8-7.5-11.8
				c-4.1,0-7.5,2.9-7.5,6.5v6.8c1,1.3,2.4,2.2,4,2.3l40.7,2.6v-4.3C743.1,742.3,741.8,740.2,737.6,740.2z"/>
			<g>
				<path d="M736.9,737.8c-3.4,0.6-4.6,3.2-6.6,5.7c1.4,0.6,2.8,1.2,4.3,1.8c-0.5-5.1-4-12.8-9.7-13.6c-5.5-0.8-10.6,5.9-13.5,9.7
					c1.6,0.4,3.1,0.8,4.7,1.3c-0.4-4.5-2.4-10.2-6.3-12.9c-4-2.8-9.9-0.8-12.4,3.1c-1.8,2.8-1.8,7.5-1.4,10.7
					c0.5,3.4,3.5,5.1,6.8,5.5c13.4,1.5,27,1.7,40.4,2.5c1.3,0.1,2.5-1.2,2.5-2.5c0-6.2-0.7-10.9-8-11.4c-3.2-0.2-3.2,4.8,0,5
					c3.8,0.2,3,3.5,3,6.4c0.8-0.8,1.7-1.7,2.5-2.5c-10.2-0.6-20.5-1.3-30.7-1.9c-2.4-0.1-4.8-0.3-7.1-0.4c-0.8-0.1-3.5,0.1-4.1-0.4
					c-0.5-0.4-0.5-5-0.3-6.4c0.4-2,2.8-4.7,5.2-4c0.9,0.3,1.8,1.5,2.3,2.3c1.4,1.9,2.3,4.6,2.6,7c0.2,2.6,3.1,3.2,4.7,1.3
					c1.6-2.1,4.6-6.1,7.2-6.9c3.7-1.1,6.5,5.1,6.8,8.2c0.2,1.9,2.8,3.6,4.3,1.8c1.2-1.5,2.3-4,4.4-4.4
					C741.4,742,740.1,737.2,736.9,737.8z"/>
			</g>
		</g>
	</g>
	<g>
		<g>
			<g>
				<path d="M755.6,739.8c0.1,5.2,2.8,9.5,8.1,10.4c1.4,0.2,3,0.2,4.4,0.3c8.3,0.6,16.5,1.2,24.8,1.8c5,0.4,11.1,1.8,16,1
					c8.4-1.4,6.2-12.9,5.9-18.8c-0.1-1-0.7-2.2-1.8-2.4c-17.8-3.7-35.5-7.3-53.3-11c-1.7-0.3-3.1,0.7-3.2,2.4
					C756.2,728.9,755.9,734.3,755.6,739.8c-0.2,3.2,4.8,3.2,5,0c0.3-5.4,0.6-10.9,0.9-16.3c-1.1,0.8-2.1,1.6-3.2,2.4
					c17.8,3.7,35.5,7.3,53.3,11c-0.6-0.8-1.2-1.6-1.8-2.4c0.2,3.9,2.3,12.7-2.9,13.9c-1.5,0.3-3.8-0.3-5.3-0.4
					c-2.9-0.2-5.9-0.4-8.8-0.6c-6.7-0.5-13.3-1-20-1.5c-4.9-0.4-12.1,0.9-12.3-6C760.5,736.6,755.5,736.6,755.6,739.8z"/>
			</g>
		</g>
		<g>
			<path d="M769.1,739c2.8,0.3,3.8,3.8,5,5.2c0.4-2.9,4.8-10,9.2-9.6c3.1,0.3,8.4,7.2,9.6,9c0.4-3.2,4.5-10.6,8.6-10.2
				c4.1,0.4,7.2,3.5,6.9,6.8l-0.6,6.3c-1.1,1.1-2.6,1.8-4.2,1.8l-40.7-1.7l0.4-4C763.4,740.4,764.9,738.6,769.1,739z"/>
			<g>
				<path d="M768.4,741.4c1.8,0.5,2.6,2.7,3.5,4.1c1.1,1.6,4.1,1.7,4.6-0.6c0.7-3.2,3.9-8.8,7.7-7.1c2.6,1.1,5,4.9,6.5,7.2
					c1.1,1.7,4.1,1.6,4.6-0.6c0.4-1.9,1.2-3.8,2.3-5.3c2.4-3.4,7.7-3.9,8.3,1.3c0.1,1.1-0.3,2.5-0.4,3.6c-0.2,2.4,0.4,2.2-2,2
					c-3.6-0.4-7.2-0.3-10.8-0.4c-10-0.4-19.9-0.8-29.9-1.2c0.8,0.8,1.7,1.7,2.5,2.5c0.3-2.9-0.1-5.3,3.8-5.2c3.2,0.1,3.2-4.9,0-5
					c-7.1-0.3-8.2,4.2-8.8,10.2c-0.1,1.4,1.3,2.4,2.5,2.5c13.2,0.5,26.6,1.8,39.8,1.6c3,0,6.4-0.8,7.6-3.9c0.9-2.4,1.1-7.6,0.1-10
					c-1.7-4.2-7.3-7.1-11.7-5.4c-4.3,1.7-7.3,7.2-8.2,11.5c1.5-0.2,3-0.4,4.6-0.6c-2.6-3.9-6.9-10.3-12.2-10.3
					c-5.5,0-10.1,6.6-11.1,11.4c1.5-0.2,3-0.4,4.6-0.6c-1.9-2.7-3-5.4-6.5-6.4C766.6,735.7,765.3,740.5,768.4,741.4z"/>
			</g>
		</g>
	</g>
	<g>
		<g>
			<g>
				<path d="M372.3,210.2c-3.4,9.2-1.4,21.6,2.3,30.5c0.7,1.6,1.4,3.2,2.4,4.6c0.5,0.6,0.9,1.1,1.5,1.6c1.6,1.3-1.3-1.3,0.1-0.1
					c2.2,1.9,4.3,2.8,7.2,3.5c9.5,2.2,20.8,1.9,29.2-3.6c5.6-3.7,3.9-12.2,3.7-18.2c-0.3-7.8-1.7-15.4-4.2-22.8
					c-0.4-1.2-1.8-2.3-3.1-1.7c-11.8,4.8-24.1,5.9-36.7,4.4c-3.2-0.4-3.2,4.6,0,5c13,1.5,25.8,0.4,38-4.6c-1-0.6-2.1-1.2-3.1-1.7
					c1.9,5.8,3.2,11.8,3.8,18c0.4,4.2,2.1,14.9-1.5,17.7c-6.3,5-17.4,4.5-24.8,2.7c-1.2-0.3-2.4-0.7-3.6-1.1c-1.5-0.5,0.4,0.7-1-0.8
					c-2.1-2.2-3.2-4.2-4.1-7.1c-2.4-7.6-4.1-17.2-1.2-24.9C378.2,208.5,373.4,207.2,372.3,210.2z"/>
			</g>
		</g>
		<g>
			<g>
				<path d="M413.6,211.6c6.7-1.4,18.1-2,16.2,8c-1.2,6.3-7,13-13.6,13.9c-3.1,0.4-3.2,5.4,0,5c9.5-1.3,17.8-10,18.7-19.6
					c1.4-13.3-13-14.3-22.7-12.2C409.1,207.4,410.4,212.3,413.6,211.6L413.6,211.6z"/>
			</g>
		</g>
		<g>
			<g>
				<path d="M372,180.2c3.3,1.7,1.1,6.1,1.2,9.2c0.1,5.2,2.9,9.2,6.4,12.8c2.3,2.3,5.8-1.3,3.5-3.5c-5-4.9-4.9-8.5-4.4-14.8
					c0.3-3.6-0.9-6.2-4.2-7.9C371.6,174.4,369.1,178.7,372,180.2L372,180.2z"/>
			</g>
		</g>
		<g>
			<g>
				<path d="M381.5,180.2c3.3,1.7,1.1,6.1,1.2,9.2c0.1,5.2,2.9,9.2,6.4,12.8c2.3,2.3,5.8-1.3,3.5-3.5c-5-4.9-4.9-8.5-4.4-14.8
					c0.3-3.6-0.9-6.2-4.2-7.9C381.1,174.4,378.6,178.7,381.5,180.2L381.5,180.2z"/>
			</g>
		</g>
		<g>
			<g>
				<path d="M391,180.2c3.3,1.7,1.1,6.1,1.2,9.2c0.1,5.2,2.9,9.2,6.4,12.8c2.3,2.3,5.8-1.3,3.5-3.5c-5-4.9-4.9-8.5-4.4-14.8
					c0.3-3.6-0.9-6.2-4.2-7.9C390.6,174.4,388.1,178.7,391,180.2L391,180.2z"/>
			</g>
		</g>
	</g>
	<g>
		<g>
			<path d="M737.6,401.1c1,2.7,2,5.5,2.9,8.2c1.1,3,5.9,1.7,4.8-1.3c-1-2.7-2-5.5-2.9-8.2C741.3,396.7,736.5,398,737.6,401.1
				L737.6,401.1z"/>
		</g>
	</g>
</g>
</svg>
