<?xml version="1.0" encoding="utf-8"?>
<!-- Generator: Adobe Illustrator 18.1.1, SVG Export Plug-In . SVG Version: 6.00 Build 0)  -->
<svg version="1.1" id="Layer_1" xmlns="http://www.w3.org/2000/svg" xmlns:xlink="http://www.w3.org/1999/xlink" x="0px" y="0px"
	 viewBox="0 0 1000 1000" enable-background="new 0 0 1000 1000" xml:space="preserve">
<g>
	<g>
		<g>
			<path d="M439,672.1c0.4,6.1,4.6,7.7,9.8,8c6.3,0.4,12.7,0.9,19,1.3c3.8,0.3,9.4,1.7,12.8-0.6c4.6-3.1,3.6-10.4,3.9-15.2
				c0.1-1.5-1.2-2.3-2.5-2.5c-13.3-1.7-26.5-3.4-39.8-5.1c-1.4-0.2-2.4,1.3-2.5,2.5C439.4,664.4,439.2,668.3,439,672.1
				c-0.2,3.2,4.8,3.2,5,0c0.2-3.9,0.5-7.7,0.7-11.6c-0.8,0.8-1.7,1.7-2.5,2.5c13.3,1.7,26.5,3.4,39.8,5.1c-0.8-0.8-1.7-1.7-2.5-2.5
				c-0.2,3,0.8,10.4-3.1,11.4c-2.3,0.6-6.2-0.4-8.6-0.6c-4.7-0.3-9.4-0.7-14.1-1c-2.6-0.2-9.4,0.8-9.6-3.4
				C443.8,668.9,438.8,668.9,439,672.1z"/>
		</g>
	</g>
	<g>
		<g>
			<path d="M669.5,676.3c0.3,3.6-5.8,3.9-8,4.5c-4.1,1-8.3,2.1-12.4,3.1c-2.4,0.6-6,2.3-8.5,2.1c-3.6-0.2-3.8-6.2-4.5-9
				c-0.6,1-1.2,2.1-1.7,3.1c12-3.7,23.9-7.3,35.9-11c-1-0.6-2.1-1.2-3.1-1.7c0.8,3.2,1.6,6.4,2.4,9.6c0.8,3.1,5.6,1.8,4.8-1.3
				c-0.8-3.2-1.6-6.4-2.4-9.6c-0.3-1.3-1.8-2.1-3.1-1.7c-12,3.7-23.9,7.3-35.9,11c-1.3,0.4-2.1,1.7-1.7,3.1
				c1.1,4.3,1.4,10.7,6.3,12.4c3.5,1.3,8.6-1,12-1.8c5.5-1.4,11.1-2.8,16.6-4.2c4.5-1.1,8.8-2.8,8.4-8.5
				C674.2,673.1,669.2,673.1,669.5,676.3z"/>
		</g>
	</g>
	<g>
		<g>
			<path d="M560,253.8c0.7-4,3-7.3,5-10.7c1.6-2.8-2.7-5.3-4.3-2.5c-2.2,3.8-4.7,7.5-5.5,11.9C554.6,255.6,559.4,257,560,253.8
				L560,253.8z"/>
		</g>
	</g>
	<g>
		<g>
			<path d="M575.3,261.7c6.1-18,28.2-27.2,45.2-30.7c22.1-4.6,46.8-1.2,63.9,14.3c2.4,2.2,5.9-1.4,3.5-3.5
				c-18.6-16.8-44.9-20.6-68.8-15.6c-19,3.9-42,14.4-48.7,34.2C569.5,263.4,574.3,264.7,575.3,261.7L575.3,261.7z"/>
		</g>
	</g>
	<g>
		<g>
			<path d="M699.1,287.7c-0.1,12.8-9.2,22.5-15.9,32.6c-5.4,8.1-10.1,16.7-14,25.6c-5,11.4-9.6,23.2-11.9,35.5
				c-4,21.2-0.8,42.5-3.3,63.8c-1.4,12-4.4,28.8-17.3,33.8c-13.4,5.3-30.5-1.9-43-6.5c-3-1.1-4.3,3.7-1.3,4.8
				c12.7,4.6,27.4,10.2,41.2,7.7c12.5-2.3,19.3-12.9,22.6-24.4c5.8-20.6,2.5-41.8,4-62.8c1.8-25,11.4-49.8,24.7-70.9
				c7.8-12.4,19.1-23.7,19.3-39.2C704.1,284.5,699.1,284.5,699.1,287.7L699.1,287.7z"/>
		</g>
	</g>
	<g>
		<g>
			<path d="M396.9,507.4c20.7-4.9,41-16.1,56.4-30.8c2.3-2.2-1.2-5.8-3.5-3.5c-14.8,14.1-34.3,24.7-54.2,29.5
				C392.4,503.4,393.7,508.2,396.9,507.4L396.9,507.4z"/>
		</g>
	</g>
	<g>
		<g>
			<path d="M557.1,465.3c-3.1-5.8-3.1-12.5-3.7-18.9c-0.3-3.2-5.3-3.2-5,0c0.6,7.4,0.8,14.7,4.3,21.4
				C554.3,470.6,558.6,468.1,557.1,465.3L557.1,465.3z"/>
		</g>
	</g>
	<g>
		<g>
			<g>
				<path d="M440.7,358.6c-2.4-16.1-18.8-28.7-34.7-21c-16.3,7.9-17.7,29.9-6.9,42.7c0.5,0.6,1.7,0.9,2.4,0.6
					c12.5-4.3,24.9-8.6,37.4-12.9c1.1-0.4,1.7-1.2,1.8-2.4c0.2-2.2,0.2-4.2,0-6.4c-0.3-3.2-5.3-3.2-5,0c0.2,2.2,0.2,4.2,0,6.4
					c0.6-0.8,1.2-1.6,1.8-2.4c-12.5,4.3-24.9,8.6-37.4,12.9c0.8,0.2,1.6,0.4,2.4,0.6c-8.7-10.4-7.5-28.7,5.9-34.9
					c13.3-6.1,25.4,5.2,27.4,18C436.4,363.1,441.2,361.8,440.7,358.6z"/>
			</g>
		</g>
		<g>
			<path d="M427.6,364.2c-0.8-6.7-6.4-11.6-12.6-10.8c-6.1,0.7-10.4,6.8-9.6,13.5c0.3,2.8,1.5,5.2,3.2,7.1l19-6.6
				C427.7,366.4,427.7,365.3,427.6,364.2z"/>
			<g>
				<path d="M430,363.5c-1.5-8.9-10.7-15.8-19.5-11.4c-9.1,4.5-9.5,16.4-3.7,23.6c0.5,0.6,1.7,0.9,2.4,0.6c6.3-2.2,12.7-4.4,19-6.6
					c1.1-0.4,1.8-1.2,1.8-2.4c0.1-1.1,0.1-2.2,0-3.3c-0.2-3.2-5.2-3.2-5,0c0.1,1.1,0.1,2.2,0,3.3c0.6-0.8,1.2-1.6,1.8-2.4
					c-6.3,2.2-12.7,4.4-19,6.6c0.8,0.2,1.6,0.4,2.4,0.6c-3.9-4.9-3.3-13.4,3.1-15.9c6.1-2.4,10.8,3.1,11.7,8.6
					C425.7,368,430.5,366.7,430,363.5z"/>
			</g>
		</g>
		<g>
			<g>
				<path d="M424.7,339.7c0.1-2.6,1.6-4.7,2.8-6.9c1.6-2.8-2.8-5.3-4.3-2.5c-1.7,3-3.3,5.9-3.5,9.4
					C419.6,342.9,424.6,342.9,424.7,339.7L424.7,339.7z"/>
			</g>
		</g>
		<g>
			<g>
				<path d="M431,342.5c0.2-2.7,1.8-5,3-7.3c1.6-2.8-2.7-5.3-4.3-2.5c-1.7,3.1-3.5,6.1-3.7,9.8C425.8,345.7,430.8,345.7,431,342.5
					L431,342.5z"/>
			</g>
		</g>
		<g>
			<g>
				<path d="M400.2,327.2c7-7.2,22.1-7.8,29.2,0c2.2,2.4,5.7-1.2,3.5-3.5c-8.8-9.8-27.5-9.1-36.2,0C394.5,326,398,329.5,400.2,327.2
					L400.2,327.2z"/>
			</g>
		</g>
		<g>
			<g>
				<path d="M417.4,338c0.1-2.6,1.6-4.7,2.8-6.9c1.6-2.8-2.8-5.3-4.3-2.5c-1.7,3-3.3,5.9-3.5,9.4C412.3,341.3,417.3,341.3,417.4,338
					L417.4,338z"/>
			</g>
		</g>
	</g>
	<g>
		<g>
			<path d="M584.5,497.9c-10.3,6-20.6,12-30.8,18c0.8,0,1.7,0,2.5,0c-7.6-4.1-15.2-8.3-22.8-12.4c-4.5-2.4-9-4.9-13.4-7.3
				c-1-0.5-2-1.3-3-1.7c-2.7-0.9-5.4,0.9-8,1.9c-10,3.8-20.2,7-30.6,9.7c-1.6,0.4-3.9,0.6-5.3,1.6c-1.4,1.1-2.3,3.8-3.1,5.3
				c-2.7,5.1-5.2,10.3-7.6,15.6c-8.6,19.1-15.2,39-19.8,59.4c-5.3,23.7-7.8,47.9-8.2,72.1c0,1.5,1.2,2.3,2.5,2.5c16.7,2,33.3,4,50,6
				c1.1,0.1,2.2-0.9,2.4-1.8c6.4-25.4,12.9-50.8,19.3-76.2c-1.6-0.2-3.3-0.4-4.9-0.7c-2.4,31.5-4.9,62.9-7.3,94.4
				c-0.3,4.5-0.7,9-1,13.5c-0.1,1.3,1.2,2.6,2.5,2.5c33.7-1.4,67.5-2.7,101.2-4.1c4.8-0.2,9.7-0.4,14.5-0.6c1.3-0.1,2.5-1.1,2.5-2.5
				c-1-28.2-1.9-56.5-2.9-84.7c-0.1-4.1-0.3-8.2-0.4-12.3c-1.6,0.2-3.3,0.4-4.9,0.7c6.2,27.3,12.4,54.7,18.7,82
				c0.3,1.3,1.8,2.1,3.1,1.7c14.6-3.7,29.3-7.4,43.9-11.1c1-0.3,1.9-1.3,1.8-2.4c-3-53.8-9.9-112.1-38.2-159.2
				c-0.6-1-1.7-1.4-2.8-1.1c-16.2,4.3-33.2-0.2-47.3-8.7c-2.8-1.7-5.3,2.7-2.5,4.3c15.2,9.2,33.7,13.8,51.1,9.2
				c-0.9-0.4-1.9-0.8-2.8-1.1c27.8,46.3,34.5,103.8,37.5,156.7c0.6-0.8,1.2-1.6,1.8-2.4c-14.6,3.7-29.3,7.4-43.9,11.1
				c1,0.6,2.1,1.2,3.1,1.7c-6.2-27.3-12.4-54.7-18.7-82c-0.6-2.7-5-2.2-4.9,0.7c1,28.2,1.9,56.5,2.9,84.7c0.1,4.1,0.3,8.2,0.4,12.3
				c0.8-0.8,1.7-1.7,2.5-2.5c-33.7,1.4-67.5,2.7-101.2,4.1c-4.8,0.2-9.7,0.4-14.5,0.6c0.8,0.8,1.7,1.7,2.5,2.5
				c2.4-31.5,4.9-62.9,7.3-94.4c0.3-4.5,0.7-9,1-13.5c0.2-2.8-4.2-3.4-4.9-0.7c-6.4,25.4-12.9,50.8-19.3,76.2
				c0.8-0.6,1.6-1.2,2.4-1.8c-16.7-2-33.3-4-50-6c0.8,0.8,1.7,1.7,2.5,2.5c0.4-27.5,3.7-55,10.7-81.6c3.4-13,7.7-25.9,12.8-38.3
				c2.5-6.2,5.3-12.3,8.3-18.3c1.3-2.6,2.5-5.3,4-7.8c2-3.3,5.6-3.3,9.2-4.3c6.1-1.7,12.2-3.6,18.3-5.7c2.8-1,5.7-2,8.5-3.1
				c0,0,4.8-2.2,3.1-2.2c0.2,0,0.4,0.3,0.6,0.3c1.5,0.3,3.6,1.9,4.9,2.7c3,1.6,6,3.3,9,4.9c6.2,3.4,12.5,6.8,18.7,10.2
				c2.5,1.4,5.9,4.3,8.8,3.3c2-0.7,3.9-2.3,5.7-3.3c3.5-2,7-4.1,10.5-6.1c4.9-2.8,9.7-5.7,14.6-8.5
				C589.8,500.6,587.3,496.3,584.5,497.9z"/>
		</g>
	</g>
	<g>
		<g>
			<path d="M635.7,511.4c11.3-3.4,19.2-11.9,26.4-20.9c5.5-6.9,10.2-14.4,13-22.8c4.8-14.5,2.7-29.6,2.9-44.5
				c0.1-8.9,1.2-17.7,3.7-26.3c1.7-5.9,3.5-12.2,7.5-16.9c4.5-5.3,9.3-10.3,13.9-15.5c14-16.2,26.5-33.6,34.4-53.6
				c3.3-8.3,6.7-17.3,7.7-26.3c1-8.3,0-16.8-2.2-24.8c-5.1-18.5-16.9-34.8-32.4-46c-9.3-6.7-20.3-10.2-31.4-12.9
				c-9.3-2.3-18.9-3.6-28.5-3.9c-15.9-0.4-31.7,2.6-46.3,9c-12.3,5.3-23.5,13-33.1,22.2c-3,2.9-5.8,5.9-8.4,9
				c-0.9,1.1-1.8,2.1-2.6,3.3c-0.6,0.9-0.9,0.8-0.2,0.5c1,0.1,2,0.3,3,0.4c0,0,0,0,0,0c0.2,0.8,0.4,1.6,0.6,2.4
				c-0.1,0.8-0.2,0.4,0.1-0.1c0.7-1.2,0.3-2.6-0.9-3.4c-6-4-12.2-7.6-18.6-10.8c-2.5-1.2-5,1.8-3,3.9c4.7,5.1,0.8,6.9-4.2,7.9
				c-5.6,1.2-11.6,1.1-17.3,0.8c-16-0.8-32-4.2-47.4-8.9c-11.8-3.6-25-7.9-34.7-15.8c-1.3-1-2.3-2.6-3.9-3c-2.6-0.7-7.3,1-10,1.5
				c-3.7,0.7-7.3,1.5-10.9,2.5c-38.7,10.4-69.5,37.3-83.5,75.1c-5.3,14.2-8.2,29.5-8.5,44.7c-0.2,10.3,0.6,20.9,4.7,30.4
				c3.6,8.5,4.9,18.8,2.2,27.7c-3.2,10.7-13.3,17.1-24.5,15.1c-5.5-1-12.1-2.8-13.6-8.9c-1.8-7,0.2-15.3,0.8-22.3
				c1.8-18.8,5.6-41.6-11.8-54.3c-13.3-9.8-32.6-11.6-48.5-8.7c-3.3,0.6-6.4,1.5-9.5,2.8c-0.8,0.3-1.2,1.4-1.2,2.2
				c0,5.2,0,10.5,0,15.7c0,1.7,1.6,2.7,3.2,2.4c17.2-3.5,41.1-4.5,45,17.3c1.2,6.7,0.5,13.6-0.6,20.3c-1.6,10.1-2.4,19.9-0.9,30.1
				c3.2,23.1,16.5,44.8,38.2,54.5c6.3,2.8,12.8,4.1,19.4,5.8c7.5,1.9,14.9,4.4,22.1,7.3c14.1,5.8,27.4,13.6,39.3,23.2
				c3,2.5,5.8,5.7,9,7.9c3.3,2.2,8.2,3,12,4.1c8.1,2.3,16.4,3.9,24.8,4.8c15.1,1.5,29.5-0.1,44.1-3.6c3.1-0.8,1.8-5.6-1.3-4.8
				c-13.5,3.3-26.7,4.8-40.6,3.7c-7.8-0.7-15.5-2.1-23.1-4.1c-4-1.1-8.9-2-12.6-4c-3.2-1.8-6-5.1-8.9-7.4
				c-11.1-9-23.4-16.5-36.4-22.4c-7-3.1-14.2-5.8-21.5-7.9c-6.9-2-14.1-3.1-20.8-5.6c-24.3-8.9-38.1-33.5-39.6-58.5
				c-1-15.8,5.7-32,1.3-47.7c-6.3-22.4-32-21.4-50.5-17.7c1.1,0.8,2.1,1.6,3.2,2.4c0-5.2,0-10.5,0-15.7c-0.4,0.7-0.8,1.4-1.2,2.2
				c12.2-5.3,28.3-4.2,40.6-0.2c6.8,2.2,13.6,5.9,17.9,11.7c5.7,7.7,5.2,17,4.9,26.1c-0.3,8.9-1.2,17.7-2.1,26.5
				c-0.5,5.2-1.2,10.8,0.3,15.9c3.4,11.5,19.8,14,29.7,11.4c16.1-4.3,21-21.4,19-36.2c-1.3-9.5-6-17.8-7.1-27.4
				c-2.9-24.8,2.9-51.3,14.8-73c19.1-35.1,54.1-54.3,92.8-59.8c-0.8-0.2-1.6-0.4-2.4-0.6c7.2,7.5,17.9,11.7,27.4,15.3
				c15.1,5.7,31.1,9.7,47.2,11.8c10.9,1.5,23.6,3.1,34.3-0.2c8.4-2.6,10.5-9.1,4.2-15.7c-1,1.3-2,2.6-3,3.9
				c6.5,3.2,12.7,6.8,18.6,10.8c-0.3-1.1-0.6-2.3-0.9-3.4c-0.7,1.2-1,2.5,0.1,3.7c0.7,0.8,2.1,0.9,3,0.4c1.3-0.7,1.9-2.1,2.5-3
				c1.8-2.3,3.7-4.4,5.7-6.5c6.8-7.2,14.5-13.5,23-18.7c29.1-17.7,63.7-18.5,95.6-8.1c19.7,6.5,35.3,21.1,44.2,39.9
				c3.9,8.2,6.4,17.3,6.8,26.4c0.4,8.2-1.6,15.2-3.9,23c-6.3,20.4-17,38.3-30.4,54.8c-3.6,4.4-7.3,8.7-11,12.9
				c-3.9,4.4-9.3,8.8-12.4,13.7c-2.4,3.8-3.7,8.9-5.1,13.2c-1.4,4.5-2.5,9.2-3.3,13.9c-2.6,16.4,0.6,32.9-1.7,49.3
				c-1.2,8.9-4.6,17.2-9.6,24.7c-6.9,10.4-16.5,22.1-28.7,25.8C631.3,507.5,632.6,512.4,635.7,511.4L635.7,511.4z"/>
		</g>
	</g>
	<g>
		<g>
			<path d="M544.5,523.9c-0.6,3.5-1.2,7.1-1.8,10.6c-0.3,2,1.7,4.1,3.7,2.8c3.2-1.9,6.3-3.9,9.5-5.8c1.6-1,1.6-3.3,0-4.3
				c-2.6-1.6-5.1-3.2-7.7-4.7c-2.7-1.7-5.3,2.6-2.5,4.3c2.6,1.6,5.1,3.2,7.7,4.7c0-1.4,0-2.9,0-4.3c-3.2,1.9-6.3,3.9-9.5,5.8
				c1.2,0.9,2.4,1.9,3.7,2.8c0.6-3.5,1.2-7.1,1.8-10.6C549.9,522.1,545.1,520.7,544.5,523.9z"/>
		</g>
	</g>
	<g>
		<g>
			<path d="M553.4,558.4c-4.4,2.7-8.9,5.5-13.3,8.2c-1.6,1-1.6,3.3,0,4.3c4.4,2.7,8.9,5.5,13.3,8.2c0.7,0.5,1.8,0.5,2.5,0
				c4.4-2.7,8.9-5.5,13.3-8.2c1.6-1,1.6-3.3,0-4.3c-4.4-2.7-8.9-5.5-13.3-8.2c-2.7-1.7-5.3,2.6-2.5,4.3c4.4,2.7,8.9,5.5,13.3,8.2
				c0-1.4,0-2.9,0-4.3c-4.4,2.7-8.9,5.5-13.3,8.2c0.8,0,1.7,0,2.5,0c-4.4-2.7-8.9-5.5-13.3-8.2c0,1.4,0,2.9,0,4.3
				c4.4-2.7,8.9-5.5,13.3-8.2C558.6,561,556.1,556.7,553.4,558.4z"/>
		</g>
	</g>
	<g>
		<g>
			<path d="M553.4,544.2c-3.8,2.4-7.7,4.7-11.5,7.1c-1.6,1-1.6,3.3,0,4.3c3.8,2.4,7.7,4.7,11.5,7.1c0.7,0.5,1.8,0.5,2.5,0
				c3.8-2.4,7.7-4.7,11.5-7.1c1.6-1,1.6-3.3,0-4.3c-3.8-2.4-7.7-4.7-11.5-7.1c-2.7-1.7-5.3,2.6-2.5,4.3c3.8,2.4,7.7,4.7,11.5,7.1
				c0-1.4,0-2.9,0-4.3c-3.8,2.4-7.7,4.7-11.5,7.1c0.8,0,1.7,0,2.5,0c-3.8-2.4-7.7-4.7-11.5-7.1c0,1.4,0,2.9,0,4.3
				c3.8-2.4,7.7-4.7,11.5-7.1C558.6,546.8,556.1,542.5,553.4,544.2z"/>
		</g>
	</g>
	<g>
		<g>
			<path d="M569.7,535.7c-4.6-2.8-9.2-5.7-13.8-8.5c-0.7-0.5-1.8-0.5-2.5,0c-2.8,1.7-5.8,3.3-8.5,5.2c-2.6,1.8-2.4,3.8-2.9,6.9
				c-0.2,1.1,0.1,2.2,1.1,2.8c3.4,2.1,6.8,4.2,10.3,6.3c0.7,0.5,1.8,0.5,2.5,0c4.6-2.8,9.2-5.7,13.8-8.5c2.7-1.7,0.2-6-2.5-4.3
				c-4.6,2.8-9.2,5.7-13.8,8.5c0.8,0,1.7,0,2.5,0c-3.4-2.1-6.8-4.2-10.3-6.3c0.4,0.9,0.8,1.9,1.1,2.8c0.2-0.9,1.1-3.4,0.7-4.1
				c-0.5-1-1.1,0.8-0.7,0.5c0.6-0.3,1.2-0.7,1.8-1.1c2.4-1.5,4.9-3,7.3-4.5c-0.8,0-1.7,0-2.5,0c4.6,2.8,9.2,5.7,13.8,8.5
				C569.9,541.7,572.4,537.4,569.7,535.7z"/>
		</g>
	</g>
	<g>
		<g>
			<path d="M542.1,598.1c-0.9,0.5-1.7,1.1-2.6,1.6c-1.1,0.7-1.7,2.3-0.9,3.4c2.2,3.2,4.5,6.5,6.7,9.7c0.8,1.1,2.2,1.7,3.4,0.9
				c2.4-1.5,4.8-2.9,7.1-4.4c1.6-1,1.6-3.3,0-4.3c-3.7-2.3-7.5-4.6-11.2-6.9c-2.7-1.7-5.3,2.6-2.5,4.3c3.7,2.3,7.5,4.6,11.2,6.9
				c0-1.4,0-2.9,0-4.3c-2.4,1.5-4.8,2.9-7.1,4.4c1.1,0.3,2.3,0.6,3.4,0.9c-2.2-3.2-4.5-6.5-6.7-9.7c-0.3,1.1-0.6,2.3-0.9,3.4
				c0.9-0.5,1.7-1.1,2.6-1.6C547.4,600.8,544.9,596.4,542.1,598.1z"/>
		</g>
	</g>
	<g>
		<g>
			<path d="M566.8,520.5c-3-1.8-6-3.6-9-5.4c-0.8-0.5-1.8-0.4-2.5,0c-0.5,0.3-1,0.6-1.5,0.9c0.8,0,1.7,0,2.5,0
				c-1.4-0.7-2.6-1.7-4.2-1.2c-1.3,0.4-2.7,1.6-3.9,2.3c-1.2,0.7-2.4,1.2-2.9,2.6c-0.5,1.2-0.5,3-0.7,4.3c-0.2,1.1,0.1,2.2,1.1,2.8
				c2.6,1.6,5.1,3.2,7.7,4.7c0.7,0.5,1.8,0.5,2.5,0c3.6-2.2,7.3-4.5,10.9-6.7c2.7-1.7,0.2-6-2.5-4.3c-3.6,2.2-7.3,4.5-10.9,6.7
				c0.8,0,1.7,0,2.5,0c-2.6-1.6-5.1-3.2-7.7-4.7c0.4,0.9,0.8,1.9,1.1,2.8c0.1-0.8,0.3-1.7,0.4-2.5c0,0,0.3-1.6,0.3-1.7
				c0.5,0.2-2.2,1.3-0.6,1c1.5-0.3,3.5-2.1,4.8-2.9c-0.8,0-1.7,0-2.5,0c2.5,1.3,3.5,1.6,6,0.2c-0.8,0-1.7,0-2.5,0c3,1.8,6,3.6,9,5.4
				C567,526.4,569.5,522.1,566.8,520.5z"/>
		</g>
	</g>
	<g>
		<g>
			<path d="M566.8,524.8c0.2-0.1,0.4-0.2,0.6-0.4c1-0.6,1.4-1.7,1.1-2.8c-0.7-3.1-1.4-6.3-2.1-9.4c-0.4-1.6-2.3-2.3-3.7-1.5
				c-2.5,1.5-5,2.9-7.5,4.4c-1.6,1-1.6,3.4,0,4.3c3,1.8,6,3.6,9,5.4c2.8,1.7,5.3-2.7,2.5-4.3c-3-1.8-6-3.6-9-5.4c0,1.4,0,2.9,0,4.3
				c2.5-1.5,5-2.9,7.5-4.4c-1.2-0.5-2.4-1-3.7-1.5c0.7,3.1,1.4,6.3,2.1,9.4c0.4-0.9,0.8-1.9,1.1-2.8c-0.2,0.1-0.4,0.2-0.6,0.4
				C561.5,522.2,564,526.5,566.8,524.8z"/>
		</g>
	</g>
	<g>
		<g>
			<path d="M546.2,513.9c-0.3,1.9-0.6,3.8-0.9,5.7c-0.3,2,1.7,4,3.7,2.8c1.8-1.1,3.6-2.2,5.4-3.2c1.6-0.9,1.7-3.4,0-4.3
				c-1.5-0.8-3-1.6-4.4-2.4c-2.8-1.5-5.4,2.8-2.5,4.3c1.5,0.8,3,1.6,4.4,2.4c0-1.4,0-2.9,0-4.3c-1.8,1.1-3.6,2.2-5.4,3.2
				c1.2,0.9,2.4,1.9,3.7,2.8c0.3-1.9,0.6-3.8,0.9-5.7c0.2-1.3-0.3-2.7-1.7-3.1C548.1,511.9,546.4,512.6,546.2,513.9z"/>
		</g>
	</g>
	<g>
		<g>
			<path d="M553.4,531.5c4.6,2.8,9.2,5.7,13.8,8.5c0.7,0.5,1.8,0.5,2.5,0c0.4-0.2,0.7-0.4,1.1-0.7c1-0.6,1.4-1.7,1.1-2.8
				c-0.7-2.9-1.3-5.8-2-8.8c-0.6-2.7-0.6-5.7-3.2-7.3c-0.7-0.5-1.8-0.5-2.5,0c-3.6,2.2-7.3,4.5-10.9,6.7c-2.7,1.7-0.2,6,2.5,4.3
				c3.6-2.2,7.3-4.5,10.9-6.7c-0.8,0-1.7,0-2.5,0c0.3,0.2,0.5,0.3,0.8,0.5c-0.4-0.5-0.8-1-1.1-1.5c1.1,4.7,2.1,9.4,3.2,14
				c0.4-0.9,0.8-1.9,1.1-2.8c-0.4,0.2-0.7,0.4-1.1,0.7c0.8,0,1.7,0,2.5,0c-4.6-2.8-9.2-5.7-13.8-8.5
				C553.2,525.5,550.6,529.8,553.4,531.5z"/>
		</g>
	</g>
	<g>
		<g>
			<path d="M553.4,548.5c3.8,2.4,7.7,4.7,11.5,7.1c0.7,0.5,1.8,0.5,2.5,0c2.1-1.3,4.1-2.5,6.2-3.8c1-0.6,1.4-1.7,1.1-2.8
				c-0.6-2.6-1.2-5.2-1.8-7.8c-0.6-2.7-0.8-4-3.3-5.5c-0.7-0.5-1.8-0.5-2.5,0c-4.6,2.8-9.2,5.7-13.8,8.5c-2.7,1.7-0.2,6,2.5,4.3
				c4.6-2.8,9.2-5.7,13.8-8.5c-0.8,0-1.7,0-2.5,0c0.5,0.3,1,0.6,1.5,0.9c-0.4-0.5-0.8-1-1.1-1.5c0.8,3.6,1.7,7.3,2.5,10.9
				c0.4-0.9,0.8-1.9,1.1-2.8c-2.1,1.3-4.1,2.5-6.2,3.8c0.8,0,1.7,0,2.5,0c-3.8-2.4-7.7-4.7-11.5-7.1
				C553.2,542.5,550.6,546.8,553.4,548.5z"/>
		</g>
	</g>
	<g>
		<g>
			<path d="M565.8,635.1c0.5-1.3,1-2.6,1.6-3.9c0.4-1-0.3-2.3-1.1-2.8c-2.5-1.5-5-3.1-7.4-4.6c-2.1-1.3-4.9,1.3-3.4,3.4
				c2,2.8,3.9,5.7,5.9,8.5c1.8,2.6,6.2,0.1,4.3-2.5c-2-2.8-3.9-5.7-5.9-8.5c-1.1,1.1-2.3,2.3-3.4,3.4c2.5,1.5,5,3.1,7.4,4.6
				c-0.4-0.9-0.8-1.9-1.1-2.8c-0.5,1.3-1,2.6-1.6,3.9c-0.5,1.3,0.5,2.7,1.7,3.1C564.1,637.3,565.3,636.4,565.8,635.1z"/>
		</g>
	</g>
	<g>
		<g>
			<path d="M576.8,557.8c-0.7-3-1.3-5.9-2-8.9c-0.4-1.6-2.3-2.3-3.7-1.5c-2.1,1.3-4.1,2.5-6.2,3.8c-1.6,1-1.6,3.3,0,4.3
				c2.7,1.7,5.5,3.4,8.2,5.1c2.7,1.7,5.3-2.6,2.5-4.3c-2.7-1.7-5.5-3.4-8.2-5.1c0,1.4,0,2.9,0,4.3c2.1-1.3,4.1-2.5,6.2-3.8
				c-1.2-0.5-2.4-1-3.7-1.5c0.7,3,1.3,5.9,2,8.9C572.7,562.3,577.5,561,576.8,557.8z"/>
		</g>
	</g>
	<g>
		<g>
			<path d="M580.6,574.4c-0.8-3.7-1.7-7.3-2.5-11c-0.4-1.6-2.3-2.3-3.7-1.5c-2.6,1.6-5.1,3.2-7.7,4.7c-1.6,1-1.6,3.3,0,4.3
				c3.4,2.1,6.8,4.2,10.2,6.3c2.7,1.7,5.3-2.6,2.5-4.3c-3.4-2.1-6.8-4.2-10.2-6.3c0,1.4,0,2.9,0,4.3c2.6-1.6,5.1-3.2,7.7-4.7
				c-1.2-0.5-2.4-1-3.7-1.5c0.8,3.7,1.7,7.3,2.5,11C576.5,578.8,581.3,577.5,580.6,574.4z"/>
		</g>
	</g>
	<g>
		<g>
			<path d="M540.1,587.3c4.4,2.7,8.9,5.5,13.3,8.2c0.7,0.5,1.8,0.5,2.5,0c4.4-2.7,8.9-5.5,13.3-8.2c1.6-1,1.6-3.3,0-4.3
				c-4.4-2.7-8.9-5.5-13.3-8.2c-0.7-0.5-1.8-0.5-2.5,0c-4.4,2.7-8.9,5.5-13.3,8.2c-2.7,1.7-0.2,6,2.5,4.3c4.4-2.7,8.9-5.5,13.3-8.2
				c-0.8,0-1.7,0-2.5,0c4.4,2.7,8.9,5.5,13.3,8.2c0-1.4,0-2.9,0-4.3c-4.4,2.7-8.9,5.5-13.3,8.2c0.8,0,1.7,0,2.5,0
				c-4.4-2.7-8.9-5.5-13.3-8.2C539.8,581.3,537.3,585.6,540.1,587.3z"/>
		</g>
	</g>
	<g>
		<g>
			<path d="M572.3,538.1c-0.1-0.5-0.2-1-0.4-1.6c-0.4-1.6-2.3-2.3-3.7-1.5c-0.4,0.2-0.7,0.4-1.1,0.7c-1.6,1-1.6,3.3,0,4.3
				c0.5,0.3,1,0.6,1.5,0.9c1.1,0.7,2.8,0.3,3.4-0.9c0.6-1.2,0.3-2.7-0.9-3.4c-0.5-0.3-1-0.6-1.5-0.9c0,1.4,0,2.9,0,4.3
				c0.4-0.2,0.7-0.4,1.1-0.7c-1.2-0.5-2.4-1-3.7-1.5c0.1,0.5,0.2,1,0.4,1.6c0.3,1.3,1.8,2.1,3.1,1.7
				C571.9,540.7,572.6,539.4,572.3,538.1z"/>
		</g>
	</g>
	<g>
		<g>
			<path d="M542.1,602.5c3.7,2.3,7.5,4.6,11.2,6.9c0.7,0.5,1.8,0.5,2.5,0c3.7-2.3,7.5-4.6,11.2-6.9c1.6-1,1.6-3.3,0-4.3
				c-3.7-2.3-7.5-4.6-11.2-6.9c-0.7-0.5-1.8-0.5-2.5,0c-3.7,2.3-7.5,4.6-11.2,6.9c-2.7,1.7-0.2,6,2.5,4.3c3.7-2.3,7.5-4.6,11.2-6.9
				c-0.8,0-1.7,0-2.5,0c3.7,2.3,7.5,4.6,11.2,6.9c0-1.4,0-2.9,0-4.3c-3.7,2.3-7.5,4.6-11.2,6.9c0.8,0,1.7,0,2.5,0
				c-3.7-2.3-7.5-4.6-11.2-6.9C541.9,596.5,539.4,600.8,542.1,602.5z"/>
		</g>
	</g>
	<g>
		<g>
			<path d="M567.1,602.5c4.4-2.7,8.9-5.5,13.3-8.2c1.6-1,1.6-3.3,0-4.3c-3.7-2.3-7.5-4.6-11.2-6.9c-0.7-0.5-1.8-0.5-2.5,0
				c-4.4,2.7-8.9,5.5-13.3,8.2c-1.6,1-1.6,3.3,0,4.3c3.7,2.3,7.5,4.6,11.2,6.9c2.7,1.7,5.3-2.6,2.5-4.3c-3.7-2.3-7.5-4.6-11.2-6.9
				c0,1.4,0,2.9,0,4.3c4.4-2.7,8.9-5.5,13.3-8.2c-0.8,0-1.7,0-2.5,0c3.7,2.3,7.5,4.6,11.2,6.9c0-1.4,0-2.9,0-4.3
				c-4.4,2.7-8.9,5.5-13.3,8.2C561.9,599.8,564.4,604.2,567.1,602.5z"/>
		</g>
	</g>
	<g>
		<g>
			<path d="M568.7,522.4c-0.1-0.3-0.1-0.6-0.2-0.9c-0.4-1.6-2.3-2.3-3.7-1.5c-0.2,0.1-0.4,0.2-0.6,0.4c-1.6,1-1.6,3.3,0,4.3
				c0.3,0.2,0.5,0.3,0.8,0.5c1.1,0.7,2.8,0.3,3.4-0.9c0.6-1.2,0.3-2.7-0.9-3.4c-0.3-0.2-0.5-0.3-0.8-0.5c0,1.4,0,2.9,0,4.3
				c0.2-0.1,0.4-0.2,0.6-0.4c-1.2-0.5-2.4-1-3.7-1.5c0.1,0.3,0.1,0.6,0.2,0.9c0.3,1.3,1.8,2.1,3.1,1.7
				C568.3,525.1,569,523.8,568.7,522.4z"/>
		</g>
	</g>
	<g>
		<g>
			<path d="M553.4,605.1c-2.4,1.5-4.8,2.9-7.1,4.4c-1.1,0.7-1.7,2.3-0.9,3.4c2.8,4,5.5,7.9,8.3,11.9c0.8,1.1,2.2,1.7,3.4,0.9
				c4.2-2.6,8.4-5.2,12.7-7.8c1.6-1,1.6-3.3,0-4.3c-4.6-2.8-9.2-5.7-13.8-8.5c-2.7-1.7-5.3,2.6-2.5,4.3c4.6,2.8,9.2,5.7,13.8,8.5
				c0-1.4,0-2.9,0-4.3c-4.2,2.6-8.4,5.2-12.7,7.8c1.1,0.3,2.3,0.6,3.4,0.9c-2.8-4-5.5-7.9-8.3-11.9c-0.3,1.1-0.6,2.3-0.9,3.4
				c2.4-1.5,4.8-2.9,7.1-4.4C558.6,607.7,556.1,603.4,553.4,605.1z"/>
		</g>
	</g>
	<g>
		<g>
			<path d="M553.4,562.7c4.4,2.7,8.9,5.5,13.3,8.2c0.7,0.5,1.8,0.5,2.5,0c2.6-1.6,5.1-3.2,7.7-4.7c1-0.6,1.4-1.7,1.1-2.8
				c-0.6-2.6-0.6-5.5-2.7-7.2c-2.3-1.9-5.4-3.3-7.9-4.9c-0.7-0.5-1.8-0.5-2.5,0c-3.8,2.4-7.7,4.7-11.5,7.1c-2.7,1.7-0.2,6,2.5,4.3
				c3.8-2.4,7.7-4.7,11.5-7.1c-0.8,0-1.7,0-2.5,0c2.3,1.4,4.7,3.3,7.2,4.4c0,0,1,0.6,1,0.6c-0.9-1.5-1.2-1.8-1-1
				c0.1,0.4,0.2,0.8,0.3,1.2c0.1,1.3,0.6,2.6,0.9,3.9c0.4-0.9,0.8-1.9,1.1-2.8c-2.6,1.6-5.1,3.2-7.7,4.7c0.8,0,1.7,0,2.5,0
				c-4.4-2.7-8.9-5.5-13.3-8.2C553.2,556.7,550.6,561,553.4,562.7z"/>
		</g>
	</g>
	<g>
		<g>
			<path d="M555.9,558.4c-3.8-2.4-7.7-4.7-11.5-7.1c-0.7-0.5-1.8-0.5-2.5,0c-2.7,1.7-2.5,4-3,6.9c-0.5,3-1,5.9-1.5,8.9
				c-0.2,1.1,0.1,2.2,1.1,2.8c0.5,0.3,1.1,0.6,1.6,1c0.7,0.5,1.8,0.5,2.5,0c4.4-2.7,8.9-5.5,13.3-8.2c2.7-1.7,0.2-6-2.5-4.3
				c-4.4,2.7-8.9,5.5-13.3,8.2c0.8,0,1.7,0,2.5,0c-0.5-0.3-1.1-0.6-1.6-1c0.4,0.9,0.8,1.9,1.1,2.8c0.8-4.6,1.5-9.1,2.3-13.7
				c-0.4,0.5-0.8,1-1.1,1.5c0.4-0.2,0.7-0.4,1.1-0.7c-0.8,0-1.7,0-2.5,0c3.8,2.4,7.7,4.7,11.5,7.1
				C556.1,564.4,558.6,560.1,555.9,558.4z"/>
		</g>
	</g>
	<g>
		<g>
			<path d="M539.8,552.2c-0.1,0.4-0.1,0.8-0.2,1.2c-0.2,1,0,2,0.9,2.6c0.8,0.6,1.9,0.7,2.8,0.2c0.4-0.2,0.7-0.4,1.1-0.7
				c1.6-1,1.6-3.3,0-4.3c-0.3-0.2-0.6-0.4-0.9-0.5c-1.1-0.7-2.8-0.3-3.4,0.9c-0.6,1.2-0.3,2.7,0.9,3.4c0.3,0.2,0.6,0.4,0.9,0.5
				c0-1.4,0-2.9,0-4.3c-0.4,0.2-0.7,0.4-1.1,0.7c1.2,0.9,2.4,1.9,3.7,2.8c0.1-0.4,0.1-0.8,0.2-1.2c0.1-0.7,0.1-1.3-0.3-1.9
				c-0.3-0.5-0.9-1-1.5-1.1C541.7,550.2,540,550.9,539.8,552.2z"/>
		</g>
	</g>
	<g>
		<g>
			<path d="M553.4,609.4c4.6,2.8,9.2,5.7,13.8,8.5c0.7,0.5,1.8,0.5,2.5,0c2.1-1.3,3.7-2,4.6-4.3c1-2.4,1.9-4.8,2.8-7.1
				c0.4-1-0.3-2.3-1.1-2.8c-3-1.8-5.9-3.6-8.9-5.5c-0.7-0.5-1.8-0.5-2.5,0c-3.7,2.3-7.5,4.6-11.2,6.9c-2.7,1.7-0.2,6,2.5,4.3
				c3.7-2.3,7.5-4.6,11.2-6.9c-0.8,0-1.7,0-2.5,0c3,1.8,5.9,3.6,8.9,5.5c-0.4-0.9-0.8-1.9-1.1-2.8c-0.8,2-1.6,4-2.4,6.1
				c-0.2,0.4-0.4,0.9-0.5,1.3c-0.4,2,0-2.5,0.7-0.7c0,0.1-2.6,1.6-3,1.8c0.8,0,1.7,0,2.5,0c-4.6-2.8-9.2-5.7-13.8-8.5
				C553.2,603.4,550.6,607.7,553.4,609.4z"/>
		</g>
	</g>
	<g>
		<g>
			<path d="M572.7,617.6c0.4-1,0.8-2.1,1.2-3.1c0.4-0.9-0.2-2.1-0.9-2.6c-0.8-0.6-1.9-0.7-2.8-0.2c-1,0.6-2.1,1.3-3.1,1.9
				c-1.6,1-1.6,3.3,0,4.3c0.6,0.4,1.3,0.8,1.9,1.2c1.1,0.7,2.8,0.3,3.4-0.9c0.6-1.2,0.3-2.7-0.9-3.4c-0.6-0.4-1.3-0.8-1.9-1.2
				c0,1.4,0,2.9,0,4.3c1-0.6,2.1-1.3,3.1-1.9c-1.2-0.9-2.4-1.9-3.7-2.8c-0.4,1-0.8,2.1-1.2,3.1c-0.5,1.2,0.5,2.8,1.7,3.1
				C571.1,619.6,572.2,618.9,572.7,617.6z"/>
		</g>
	</g>
	<g>
		<g>
			<path d="M553.6,624.8c1.2,1.8,2.2,3.1,4,4.2c2,1.2,4,2.5,6,3.7c1.5,0.9,3.1-0.1,3.7-1.5c1.8-4.6,3.6-9.1,5.4-13.7
				c0.4-1-0.3-2.3-1.1-2.8c-0.6-0.4-1.3-0.8-1.9-1.2c-0.7-0.5-1.8-0.5-2.5,0c-4.2,2.6-8.4,5.2-12.7,7.8c-2.7,1.7-0.2,6,2.5,4.3
				c4.2-2.6,8.4-5.2,12.7-7.8c-0.8,0-1.7,0-2.5,0c0.6,0.4,1.3,0.8,1.9,1.2c-0.4-0.9-0.8-1.9-1.1-2.8c-1.8,4.6-3.6,9.1-5.4,13.7
				c1.2-0.5,2.4-1,3.7-1.5c-1.8-1.1-3.6-2.2-5.4-3.3c-0.6-0.4-1.3-1-2-1.3c0.8,0.9,1,1.1,0.6,0.5c-0.2-0.3-0.4-0.6-0.6-0.8
				c-0.3-0.4-0.6-0.8-0.8-1.2C556.1,619.6,551.8,622.1,553.6,624.8z"/>
		</g>
	</g>
	<g>
		<g>
			<path d="M555.9,544.2c-3.4-2.1-6.8-4.2-10.3-6.3c-1.3-0.8-3.4-0.1-3.7,1.5c-0.7,4.3-1.4,8.6-2.1,12.9c-0.2,1.1,0.1,2.2,1.1,2.8
				c0.3,0.2,0.6,0.4,0.9,0.5c0.7,0.5,1.8,0.5,2.5,0c3.8-2.4,7.7-4.7,11.5-7.1c2.7-1.7,0.2-6-2.5-4.3c-3.8,2.4-7.7,4.7-11.5,7.1
				c0.8,0,1.7,0,2.5,0c-0.3-0.2-0.6-0.4-0.9-0.5c0.4,0.9,0.8,1.9,1.1,2.8c0.7-4.3,1.4-8.6,2.1-12.9c-1.2,0.5-2.4,1-3.7,1.5
				c3.4,2.1,6.8,4.2,10.3,6.3C556.1,550.2,558.6,545.9,555.9,544.2z"/>
		</g>
	</g>
	<g>
		<g>
			<path d="M555.9,591.2c-4.4-2.7-8.9-5.5-13.3-8.2c-0.7-0.5-1.8-0.5-2.5,0c-1.7,1-4.2,2-5.5,3.5c-1.3,1.4-1.6,5.1-1.6,6.9
				c-0.1,4.7,5.8,7,9.2,9.1c0.7,0.5,1.8,0.5,2.5,0c3.7-2.3,7.5-4.6,11.2-6.9c2.7-1.7,0.2-6-2.5-4.3c-3.7,2.3-7.5,4.6-11.2,6.9
				c0.8,0,1.7,0,2.5,0c-1.7-1-3.4-2.1-5.1-3.1c-0.4-0.2-0.7-0.5-1.1-0.7c-0.8-0.5,0.8,1.1,0.3,0.3c-0.2-0.3-0.5-1.1-0.9-1.3
				c-0.4-0.7-0.4-0.5-0.2,0.4c0,0.9,0.1,1.1,0.1,0.5c0.5-0.6,0.4-2.4,0.5-3.2c0.1-0.5,0.3-1.1,0.3-1.5c-0.2-1.6-0.6,1.2-0.9,0.8
				c0.1,0.1,4.4-2.7,4.9-3c-0.8,0-1.7,0-2.5,0c4.4,2.7,8.9,5.5,13.3,8.2C556.1,597.2,558.6,592.9,555.9,591.2z"/>
		</g>
	</g>
	<g>
		<g>
			<path d="M534.7,597.5c1.3,1.9,2.6,3.8,3.9,5.6c0.8,1.1,2.2,1.7,3.4,0.9c0.9-0.5,1.7-1.1,2.6-1.6c1.6-1,1.6-3.3,0-4.3
				c-2.2-1.3-4.4-2.7-6.5-4c-2.7-1.7-5.3,2.6-2.5,4.3c2.2,1.3,4.4,2.7,6.5,4c0-1.4,0-2.9,0-4.3c-0.9,0.5-1.7,1.1-2.6,1.6
				c1.1,0.3,2.3,0.6,3.4,0.9c-1.3-1.9-2.6-3.8-3.9-5.6c-0.8-1.1-2.2-1.6-3.4-0.9C534.5,594.8,533.9,596.4,534.7,597.5z"/>
		</g>
	</g>
	<g>
		<g>
			<path d="M555.9,574.8c-4.4-2.7-8.9-5.5-13.3-8.2c-0.7-0.5-1.8-0.5-2.5,0c-3,1.9-3.2,3.1-3.7,6.4c-0.5,3-1,6-1.5,9
				c-0.2,1.1,0.1,2.2,1.1,2.8c1.4,0.8,2.7,1.7,4.1,2.5c0.7,0.5,1.8,0.5,2.5,0c4.4-2.7,8.9-5.5,13.3-8.2c2.7-1.7,0.2-6-2.5-4.3
				c-4.4,2.7-8.9,5.5-13.3,8.2c0.8,0,1.7,0,2.5,0c-1.4-0.8-2.7-1.7-4.1-2.5c0.4,0.9,0.8,1.9,1.1,2.8c0.7-4.2,1.4-8.5,2.1-12.7
				c-0.4,0.5-0.8,1-1.1,1.5c0.6-0.4,1.3-0.8,1.9-1.2c-0.8,0-1.7,0-2.5,0c4.4,2.7,8.9,5.5,13.3,8.2
				C556.1,580.8,558.6,576.5,555.9,574.8z"/>
		</g>
	</g>
	<g>
		<g>
			<path d="M534.9,582c-0.3,1.9-0.6,3.7-0.9,5.6c-0.3,2,1.7,4.1,3.7,2.8c1.7-1,3.3-2.1,5-3.1c1.6-1,1.6-3.3,0-4.3
				c-1.4-0.8-2.7-1.7-4.1-2.5c-2.7-1.7-5.3,2.6-2.5,4.3c1.4,0.8,2.7,1.7,4.1,2.5c0-1.4,0-2.9,0-4.3c-1.7,1-3.3,2.1-5,3.1
				c1.2,0.9,2.4,1.9,3.7,2.8c0.3-1.9,0.6-3.7,0.9-5.6c0.2-1.3-0.3-2.7-1.7-3.1C536.7,579.9,535.1,580.7,534.9,582z"/>
		</g>
	</g>
	<g>
		<g>
			<path d="M537.3,567.1c-0.1,0.7-0.2,1.4-0.4,2.2c-0.2,1,0,2,0.9,2.6c0.8,0.6,1.9,0.7,2.8,0.2c0.6-0.4,1.3-0.8,1.9-1.2
				c1.6-1,1.6-3.3,0-4.3c-0.5-0.3-1.1-0.6-1.6-1c-1.1-0.7-2.8-0.3-3.4,0.9c-0.6,1.2-0.3,2.7,0.9,3.4c0.5,0.3,1.1,0.6,1.6,1
				c0-1.4,0-2.9,0-4.3c-0.6,0.4-1.3,0.8-1.9,1.2c1.2,0.9,2.4,1.9,3.7,2.8c0.1-0.7,0.2-1.4,0.4-2.2c0.1-0.7,0.1-1.3-0.3-1.9
				c-0.3-0.5-0.9-1-1.5-1.1C539.2,565.1,537.6,565.7,537.3,567.1z"/>
		</g>
	</g>
	<g>
		<g>
			<path d="M553.4,579.1c4.4,2.7,8.9,5.5,13.3,8.2c0.7,0.5,1.8,0.5,2.5,0c3.7-2.3,7.3-4.5,11-6.8c1-0.6,1.4-1.7,1.1-2.8
				c-0.7-3.1-1-4.3-3.7-5.9c-2.8-1.7-5.6-3.5-8.4-5.2c-0.7-0.5-1.8-0.5-2.5,0c-4.4,2.7-8.9,5.5-13.3,8.2c-2.7,1.7-0.2,6,2.5,4.3
				c4.4-2.7,8.9-5.5,13.3-8.2c-0.8,0-1.7,0-2.5,0c2.4,1.5,4.7,2.9,7.1,4.4c1,0.6,2,1.3,3.1,1.9c-1.1-0.6-0.8-1.9-0.8-0.2
				c0,0.7,0.3,1.4,0.5,2.1c0.4-0.9,0.8-1.9,1.1-2.8c-3.7,2.3-7.3,4.5-11,6.8c0.8,0,1.7,0,2.5,0c-4.4-2.7-8.9-5.5-13.3-8.2
				C553.2,573.1,550.6,577.4,553.4,579.1z"/>
		</g>
	</g>
	<g>
		<g>
			<path d="M566.7,587.3c3.7,2.3,7.5,4.6,11.2,6.9c0.7,0.5,1.8,0.5,2.5,0c2.7-1.7,3.7-4.2,3-7.2c-0.7-3.1-1.4-6.2-2.1-9.3
				c-0.4-1.6-2.3-2.3-3.7-1.5c-3.7,2.3-7.3,4.5-11,6.8c-2.7,1.7-0.2,6,2.5,4.3c3.7-2.3,7.3-4.5,11-6.8c-1.2-0.5-2.4-1-3.7-1.5
				c0.5,2.3,1,4.6,1.6,6.9c0.2,1.1,0.3,2.4,0.8,3.4c0.4,0.9,0.5-1-0.1-0.5c-0.4,0.3-0.5,1.3-0.7,1.8c0.4-0.5,0.8-1,1.1-1.5
				c-0.4,0.3-0.9,0.5-1.3,0.8c0.8,0,1.7,0,2.5,0c-3.7-2.3-7.5-4.6-11.2-6.9C566.5,581.3,564,585.6,566.7,587.3z"/>
		</g>
	</g>
	<g>
		<g>
			<path d="M582.4,593.2c0.2-0.4,0.3-0.8,0.5-1.3c0.4-0.9-0.2-2.1-0.9-2.6c-0.8-0.6-1.9-0.7-2.8-0.2c-0.4,0.3-0.9,0.5-1.3,0.8
				c-1.6,1-1.6,3.3,0,4.3c0.3,0.2,0.5,0.3,0.8,0.5c1.1,0.7,2.8,0.3,3.4-0.9c0.6-1.2,0.3-2.7-0.9-3.4c-0.3-0.2-0.5-0.3-0.8-0.5
				c0,1.4,0,2.9,0,4.3c0.4-0.3,0.9-0.5,1.3-0.8c-1.2-0.9-2.4-1.9-3.7-2.8c-0.2,0.4-0.3,0.8-0.5,1.3c-0.2,0.6,0,1.4,0.3,1.9
				c0.3,0.5,0.9,1,1.5,1.1C580.8,595.3,581.9,594.5,582.4,593.2z"/>
		</g>
	</g>
	<g>
		<g>
			<path d="M564.6,602.5c3,1.8,5.9,3.6,8.9,5.5c1.5,0.9,3.1-0.1,3.7-1.5c1.7-4.4,3.5-8.8,5.2-13.2c0.4-1-0.3-2.3-1.1-2.8
				c-0.3-0.2-0.5-0.3-0.8-0.5c-0.7-0.5-1.8-0.5-2.5,0c-4.4,2.7-8.9,5.5-13.3,8.2c-2.7,1.7-0.2,6,2.5,4.3c4.4-2.7,8.9-5.5,13.3-8.2
				c-0.8,0-1.7,0-2.5,0c0.3,0.2,0.5,0.3,0.8,0.5c-0.4-0.9-0.8-1.9-1.1-2.8c-1.7,4.4-3.5,8.8-5.2,13.2c1.2-0.5,2.4-1,3.7-1.5
				c-3-1.8-5.9-3.6-8.9-5.5C564.4,596.5,561.9,600.8,564.6,602.5z"/>
		</g>
	</g>
	<g>
		<g>
			<path d="M548.2,503.1c-3.5-5.9-7-11.8-10.5-17.7c-0.7-1.2-2.2-1.6-3.4-0.9c-6.2,3.7-12.7,6.7-19.4,9.5c-1.8,0.8-2.7,3.4-0.6,4.6
				c11,6,22.1,12.1,33.1,18.1c2.8,1.5,5.4-2.8,2.5-4.3c-11-6-22.1-12.1-33.1-18.1c-0.2,1.5-0.4,3-0.6,4.6c7.1-2.9,14-6.1,20.6-10
				c-1.1-0.3-2.3-0.6-3.4-0.9c3.5,5.9,7,11.8,10.5,17.7C545.5,508.4,549.8,505.9,548.2,503.1L548.2,503.1z"/>
		</g>
	</g>
	<g>
		<g>
			<path d="M563.3,504.5c-1.7,3.5-2.6,5.2-1.7,9c0.4,1.6,2.3,2.3,3.7,1.5c7.3-4.2,14.5-8.5,21.8-12.7c1.7-1,1.6-3.3,0-4.3
				c-4.4-2.8-8.5-6-12.3-9.6c-1.1-1-3.2-1-3.9,0.5C568.3,494.1,565.8,499.3,563.3,504.5c-1.4,2.9,2.9,5.4,4.3,2.5
				c2.5-5.2,5-10.4,7.5-15.6c-1.3,0.2-2.6,0.3-3.9,0.5c4.1,3.9,8.6,7.3,13.3,10.3c0-1.4,0-2.9,0-4.3c-7.3,4.2-14.5,8.5-21.8,12.7
				c1.2,0.5,2.4,1,3.7,1.5c-0.1-0.5-0.1-1.3-0.4-1.8c-0.7-1.3-0.4,0.8-0.3,0.5c0.8-1.1,1.3-2.7,1.9-3.9
				C569,504.1,564.7,501.6,563.3,504.5z"/>
		</g>
	</g>
	<g>
		<g>
			<path d="M551.4,464.5c0.1,2.8-0.9,5.2-2.4,7.5c-1.1,1.7,0.4,3.6,2.2,3.8c2.8,0.2,5.6,0.4,8.3,0.6c1.9,0.1,3.2-2.2,2.2-3.8
				c-2-3.1-3.9-6.2-5.6-9.4c-1.5-2.8-5.8-0.3-4.3,2.5c1.7,3.2,3.6,6.4,5.6,9.4c0.7-1.3,1.4-2.5,2.2-3.8c-2.8-0.2-5.6-0.4-8.3-0.6
				c0.7,1.3,1.4,2.5,2.2,3.8c1.9-3,3.2-6.4,3.1-10.1C556.4,461.3,551.4,461.3,551.4,464.5z"/>
		</g>
	</g>
	<g>
		<g>
			<path d="M570.2,488.1c-4.8-3.1-9.5-6.2-14.3-9.3c-0.7-0.5-1.8-0.5-2.5,0c-4.8,3.1-9.5,6.2-14.3,9.4c-1.6,1-1.6,3.3,0,4.3
				c4.8,2.9,9.5,5.9,14.3,8.8c0.7,0.5,1.8,0.5,2.5,0c4.8-2.9,9.5-5.9,14.3-8.8c2.7-1.7,0.2-6-2.5-4.3c-4.8,2.9-9.5,5.9-14.3,8.8
				c0.8,0,1.7,0,2.5,0c-4.8-2.9-9.5-5.9-14.3-8.8c0,1.4,0,2.9,0,4.3c4.8-3.1,9.5-6.2,14.3-9.4c-0.8,0-1.7,0-2.5,0
				c4.8,3.1,9.5,6.2,14.3,9.3C570.4,494.2,572.9,489.9,570.2,488.1z"/>
		</g>
	</g>
	<g>
		<g>
			<path d="M547.7,514.8c1.9,1.1,3.8,2.3,5.7,3.4c0.8,0.5,1.8,0.5,2.5,0c3-1.8,5.9-3.6,8.9-5.3c1-0.6,1.4-1.7,1.1-2.8
				c-0.1-0.6-0.8,1.3-0.2,0.8c0.3-0.2,0.5-1.1,0.7-1.4c0.4-0.8,0.8-1.7,1.2-2.5c0.6-1.2,0.3-2.7-0.9-3.4c-3.6-2.2-7.2-4.4-10.8-6.7
				c-0.7-0.5-1.8-0.5-2.5,0c-2.9,1.8-5.8,3.6-8.6,5.3c-2.7,1.7-0.2,6,2.5,4.3c2.9-1.8,5.8-3.6,8.6-5.3c-0.8,0-1.7,0-2.5,0
				c3.6,2.2,7.2,4.4,10.8,6.7c-0.3-1.1-0.6-2.3-0.9-3.4c-1,2.1-2.8,4.5-2.2,6.9c0.4-0.9,0.8-1.9,1.1-2.8c-3,1.8-5.9,3.6-8.9,5.3
				c0.8,0,1.7,0,2.5,0c-1.9-1.1-3.8-2.3-5.7-3.4C547.4,508.8,544.9,513.1,547.7,514.8L547.7,514.8z"/>
		</g>
	</g>
	<g>
		<g>
			<path d="M551.8,519.2c0.6,0.4,1.3,0.7,1.9,1.1c1.6,0.8,2.8-0.1,4.1-0.9c1.6-1,1.6-3.4,0-4.3c-0.6-0.4-1.2-0.8-1.9-1.1
				c-0.8-0.5-1.8-0.5-2.5,0c-0.5,0.3-1.1,0.6-1.6,1c-1.1,0.7-1.6,2.3-0.9,3.4c0.7,1.1,2.2,1.6,3.4,0.9c0.5-0.3,1.1-0.6,1.6-1
				c-0.8,0-1.7,0-2.5,0c0.6,0.4,1.2,0.8,1.9,1.1c0-1.4,0-2.9,0-4.3c-0.5,0.3-1,0.6-1.5,0.9c0.8,0,1.7,0,2.5,0
				c-0.6-0.4-1.3-0.7-1.9-1.1c-1.1-0.6-2.8-0.3-3.4,0.9C550.3,516.9,550.6,518.5,551.8,519.2z"/>
		</g>
	</g>
	<g>
		<g>
			<path d="M553.4,518.2c0.6,0.4,1.2,0.8,1.9,1.1c0.8,0.5,1.8,0.4,2.5,0c2.5-1.5,5-2.9,7.5-4.4c1-0.6,1.4-1.7,1.1-2.8
				c-0.2-0.7-0.3-1.4-0.5-2.1c-0.4-1.6-2.3-2.3-3.7-1.5c-3,1.8-5.9,3.6-8.9,5.3c-2.8,1.7-0.2,6,2.5,4.3c3-1.8,5.9-3.6,8.9-5.3
				c-1.2-0.5-2.4-1-3.7-1.5c0.2,0.7,0.3,1.4,0.5,2.1c0.4-0.9,0.8-1.9,1.1-2.8c-2.5,1.5-5,2.9-7.5,4.4c0.8,0,1.7,0,2.5,0
				c-0.6-0.4-1.2-0.8-1.9-1.1C553.1,512.2,550.6,516.6,553.4,518.2z"/>
		</g>
	</g>
	<g>
		<g>
			<path d="M555.9,513.9c-1.9-1.1-3.8-2.3-5.7-3.4c-1.3-0.8-3.4-0.1-3.7,1.5c-0.1,0.7-0.2,1.3-0.3,2c-0.2,1.1,0.1,2.3,1.1,2.8
				c1.2,0.7,2.5,1.4,3.7,2c1,0.6,2,1,3.2,0.4c0.5-0.3,1.1-0.6,1.6-1c2.8-1.7,0.2-6-2.5-4.3c-0.5,0.3-1.1,0.6-1.6,1
				c0.8,0,1.7,0,2.5,0c-1.5-0.8-3-1.6-4.4-2.4c0.4,0.9,0.8,1.9,1.1,2.8c0.1-0.7,0.2-1.3,0.3-2c-1.2,0.5-2.4,1-3.7,1.5
				c1.9,1.1,3.8,2.3,5.7,3.4C556.1,519.9,558.7,515.6,555.9,513.9z"/>
		</g>
	</g>
	<g>
		<g>
			<path d="M539.1,488.1c-0.7,0.4-1.3,0.9-2,1.3c-1.1,0.7-1.6,2.2-0.9,3.4c2.5,4.3,5.1,8.6,7.6,12.8c0.7,1.1,2.3,1.6,3.4,0.9
				c2.9-1.8,5.8-3.6,8.6-5.3c1.6-1,1.6-3.3,0-4.3c-4.8-2.9-9.5-5.9-14.3-8.8c-2.7-1.7-5.3,2.6-2.5,4.3c4.8,2.9,9.5,5.9,14.3,8.8
				c0-1.4,0-2.9,0-4.3c-2.9,1.8-5.8,3.6-8.6,5.3c1.1,0.3,2.3,0.6,3.4,0.9c-2.5-4.3-5.1-8.6-7.6-12.8c-0.3,1.1-0.6,2.3-0.9,3.4
				c0.7-0.4,1.3-0.9,2-1.3C544.3,490.7,541.8,486.4,539.1,488.1z"/>
		</g>
	</g>
	<g>
		<g>
			<path d="M573.3,486.9c-3.6-3.6-6.8-7.5-9.8-11.6c-0.8-1.1-2.2-1.7-3.4-0.9c-2.2,1.4-4.4,2.9-6.6,4.3c-1.6,1.1-1.6,3.3,0,4.3
				c4.8,3.1,9.5,6.2,14.3,9.3c0.7,0.5,1.8,0.4,2.5,0c0.9-0.5,1.7-1.1,2.6-1.6c2.7-1.7,0.2-6-2.5-4.3c-0.9,0.5-1.7,1.1-2.6,1.6
				c0.8,0,1.7,0,2.5,0c-4.8-3.1-9.5-6.2-14.3-9.3c0,1.4,0,2.9,0,4.3c2.2-1.4,4.4-2.9,6.6-4.3c-1.1-0.3-2.3-0.6-3.4-0.9
				c3.2,4.5,6.7,8.7,10.6,12.6C572,492.8,575.5,489.2,573.3,486.9z"/>
		</g>
	</g>
	<g>
		<g>
			<path d="M541.6,492.4c4.8-3.1,9.5-6.2,14.3-9.4c1.6-1.1,1.6-3.3,0-4.3c-2.1-1.4-4.2-2.7-6.3-4.1c-0.9-0.6-2.3-0.4-3,0.4
				c-3.6,3.8-7.9,6.8-12.4,9.5c-1.1,0.7-1.6,2.2-0.9,3.4c1.3,2.2,3.6,3.2,5.7,4.4c2.7,1.7,5.3-2.6,2.5-4.3c-0.9-0.6-1.9-1.1-2.8-1.7
				c-0.5-0.3-1-0.5-1.4-0.9c0.6,0.5,0.8,0.8,0.2-0.1c-0.3,1.1-0.6,2.3-0.9,3.4c4.8-2.9,9.5-6.2,13.4-10.3c-1,0.1-2,0.3-3,0.4
				c2.1,1.4,4.2,2.7,6.3,4.1c0-1.4,0-2.9,0-4.3c-4.8,3.1-9.5,6.2-14.3,9.4C536.4,489.9,538.9,494.2,541.6,492.4z"/>
		</g>
	</g>
	<g>
		<g>
			<path d="M555.9,483.1c2.2-1.4,4.4-2.9,6.6-4.3c1.1-0.7,1.7-2.3,0.9-3.4c-1.2-1.7-1.9-3.6-4.1-3.9c-1.3-0.2-2.7-0.2-4-0.3
				c-1.3-0.1-2.6-0.4-3.9-0.3c-2.3,0.1-3.4,2.6-4.8,4.2c-1.1,1.2-0.9,3,0.5,3.9c2.1,1.4,4.2,2.7,6.3,4.1c2.7,1.8,5.2-2.6,2.5-4.3
				c-2.1-1.4-4.2-2.7-6.3-4.1c0.2,1.3,0.3,2.6,0.5,3.9c1.1-1.3,2.2-2.6,3.2-4c-0.7,0.4-1.4,0.8-2.2,1.2c2.8,0.2,5.6,0.4,8.3,0.6
				c-0.7-0.4-1.4-0.8-2.2-1.2c0.6,0.9,1.2,1.8,1.8,2.6c0.3-1.1,0.6-2.3,0.9-3.4c-2.2,1.4-4.4,2.9-6.6,4.3
				C550.7,480.5,553.2,484.9,555.9,483.1z"/>
		</g>
	</g>
	<g>
		<g>
			<path d="M567.7,492.4c1,0.7,2,1.3,3,2c1.1,0.7,2.9,0.3,3.4-0.9c0.3-0.7,0.7-1.4,1-2.1c0.5-1,0.5-2.2-0.4-3c-0.5-0.5-1-1-1.5-1.5
				c-0.8-0.8-2.1-1-3-0.4c-0.9,0.5-1.7,1.1-2.6,1.6c-1.1,0.7-1.6,2.2-0.9,3.4c0.7,1.1,2.3,1.6,3.4,0.9c0.9-0.5,1.7-1.1,2.6-1.6
				c-1-0.1-2-0.3-3-0.4c0.5,0.5,1,1,1.5,1.5c-0.1-1-0.3-2-0.4-3c-0.3,0.7-0.7,1.4-1,2.1c1.1-0.3,2.3-0.6,3.4-0.9c-1-0.7-2-1.3-3-2
				c-1.1-0.7-2.8-0.3-3.4,0.9C566.1,490.3,566.5,491.7,567.7,492.4z"/>
		</g>
	</g>
	<g>
		<g>
			<path d="M567.6,507c2.2-4.5,4.3-9,6.5-13.5c0.6-1.3,0.3-2.6-0.9-3.4c-1-0.7-2-1.3-3-2c-0.7-0.5-1.8-0.4-2.5,0
				c-4.8,2.9-9.5,5.9-14.3,8.8c-1.6,1-1.6,3.3,0,4.3c3.6,2.2,7.2,4.4,10.8,6.7c2.7,1.7,5.3-2.6,2.5-4.3c-3.6-2.2-7.2-4.4-10.8-6.7
				c0,1.4,0,2.9,0,4.3c4.8-2.9,9.5-5.9,14.3-8.8c-0.8,0-1.7,0-2.5,0c1,0.7,2,1.3,3,2c-0.3-1.1-0.6-2.3-0.9-3.4
				c-2.2,4.5-4.3,9-6.5,13.5C561.9,507.4,566.2,509.9,567.6,507z"/>
		</g>
	</g>
	<g>
		<g>
			<path d="M533.9,488.9c0.8,1.3,1.6,2.6,2.3,3.9c0.7,1.1,2.3,1.6,3.4,0.9c0.7-0.4,1.3-0.9,2-1.3c1.6-1,1.6-3.3,0-4.3
				c-1.4-0.9-2.9-1.8-4.3-2.6c-1.1-0.7-2.8-0.2-3.4,0.9c-0.7,1.2-0.3,2.7,0.9,3.4c1.4,0.9,2.9,1.8,4.3,2.6c0-1.4,0-2.9,0-4.3
				c-0.7,0.4-1.3,0.9-2,1.3c1.1,0.3,2.3,0.6,3.4,0.9c-0.8-1.3-1.6-2.6-2.3-3.9C536.6,483.6,532.3,486.1,533.9,488.9z"/>
		</g>
	</g>
	<g>
		<g>
			<path d="M584.5,502.3c15.2,9.2,33.7,13.8,51.1,9.2c3.1-0.8,1.8-5.6-1.3-4.8c-16.2,4.3-33.2-0.2-47.3-8.7
				C584.3,496.3,581.8,500.6,584.5,502.3L584.5,502.3z"/>
		</g>
	</g>
	<g>
		<g>
			<g>
				<path d="M533.9,222c-0.7-0.4-1.4-0.7-2.1-1.1c0.4,0.7,0.8,1.4,1.2,2.2c0,1.2,0.5-1.5,0.7-2.1c0.6-2.1,1.2-4.3,1.9-6.4
					c0.9-3,1.8-6.1,2.6-9.1c0.5-1.8-1.3-3.6-3.1-3.1c-12.6,3.7-28.3,0.5-40.8-1.9c-13.8-2.7-29-7-40.4-15.7c-1.2-0.9-3.4,0-3.7,1.5
					c-1,5.8-3,12.1-3,18c0.8-0.8,1.7-1.7,2.5-2.5c-6.5,0.2-25,1.3-20.9,12.4c3.3,8.9,16.5,13.9,24.3,17.2
					c16.6,7,34.4,11.6,52.3,14.1c11.6,1.6,26.3,3.9,37.5-0.9c3.3-1.4,6.3-4,6-7.9C548.3,229.6,539.2,224.9,533.9,222
					c-2.8-1.6-5.3,2.8-2.5,4.3c2.7,1.5,15.5,8,11.6,12.5c-2.6,3-10,3-13.5,3.1c-15.9,0.7-32.1-2.3-47.4-6.3
					c-13.9-3.6-28.4-8.1-40.7-15.9c-2.2-1.4-8-4.8-8.1-8c-0.1-5.2,13.4-5,16.4-5.1c1.4,0,2.5-1.1,2.5-2.5c0,1.2,0.3-1.8,0.4-2.3
					c0.3-1.9,0.6-3.8,1-5.7c0.5-2.9,1-5.7,1.5-8.6c-1.2,0.5-2.4,1-3.7,1.5c12.2,9.2,28.7,13.8,43.4,16.5c12.9,2.4,28.7,5.4,41.6,1.6
					c-1-1-2.1-2.1-3.1-3.1c-1,3.4-1.9,6.7-2.9,10.1c-0.8,2.7-2.4,6.1-2.4,8.9c0,0.8,0.5,1.8,1.2,2.2c0.7,0.4,1.4,0.7,2.1,1.1
					C534.2,227.8,536.7,223.5,533.9,222z"/>
			</g>
		</g>
		<g>
			<g>
				<path d="M447.4,203.5c-0.9,5.3,4.8,8.8,8.7,11.1c8.9,5.3,19.3,8.5,29.3,10.9c10.7,2.5,21.9,4.3,32.9,3.9
					c4.8-0.2,12.6-0.4,14.6-5.8c1.1-3-3.7-4.3-4.8-1.3c-1.1,3-12.1,2.2-14.6,2.1c-9-0.3-18-1.7-26.8-3.7c-8.1-1.9-16.2-4.4-23.7-8
					c-2-1-11.2-5-10.8-7.8C452.7,201.7,447.9,200.3,447.4,203.5L447.4,203.5z"/>
			</g>
		</g>
		<g>
			<g>
				<path d="M541.5,194.1c2.5-8.5,4.9-17,7.4-25.6c0.3-1.1-0.2-2.2-1.1-2.8c-25.8-18.4-56.6-25.1-87.9-22.9c-1,0.1-2.2,0.7-2.4,1.8
					c-1.7,10-3.4,20-5.1,30c-0.2,1.2,0.2,2.1,1.1,2.8c12.1,9.2,28.6,13.7,43.3,16.5c13.4,2.5,29.5,5.5,43,1.8
					c3.1-0.8,1.8-5.7-1.3-4.8c-5.4,1.5-11.2,1.3-16.7,1c-8.5-0.4-17.1-1.6-25.5-3.2c-13.8-2.7-28.9-7-40.3-15.6
					c0.4,0.9,0.8,1.9,1.1,2.8c1.7-10,3.4-20,5.1-30c-0.8,0.6-1.6,1.2-2.4,1.8c30.5-2.2,60.2,4.3,85.4,22.2c-0.4-0.9-0.8-1.9-1.1-2.8
					c-2.5,8.5-4.9,17-7.4,25.6C535.7,195.8,540.6,197.2,541.5,194.1z"/>
			</g>
		</g>
		<g>
			<path d="M535.8,204.7l3.3-11.3c-7.4,2.2-24.4,1.5-43.5-2.2c-17.8-3.5-33.8-10.4-40.9-15.9l-2,11.5c7,5.5,22.6,12.3,40,15.7
				C511.7,206.4,528.6,207,535.8,204.7z"/>
			<g>
				<path d="M538.2,205.4c1.1-3.8,2.2-7.5,3.3-11.3c0.5-1.8-1.3-3.6-3.1-3.1c-5.4,1.5-11.2,1.3-16.7,1c-8.5-0.4-17.1-1.6-25.5-3.2
					c-13.8-2.7-28.9-7-40.3-15.6c-1.2-0.9-3.4,0-3.7,1.5c-0.7,3.8-1.3,7.7-2,11.5c-0.2,1.2,0.2,2.1,1.1,2.8
					c12.2,9.2,28.7,13.8,43.4,16.5c12.9,2.4,28.7,5.4,41.6,1.6c3.1-0.9,1.8-5.7-1.3-4.8c-12.6,3.7-28.3,0.5-40.8-1.9
					c-13.8-2.7-29-7-40.4-15.7c0.4,0.9,0.8,1.9,1.1,2.8c0.7-3.8,1.3-7.7,2-11.5c-1.2,0.5-2.4,1-3.7,1.5
					c12.1,9.2,28.6,13.7,43.3,16.5c13.4,2.5,29.5,5.5,43,1.8c-1-1-2.1-2.1-3.1-3.1c-1.1,3.8-2.2,7.5-3.3,11.3
					C532.5,207.2,537.3,208.5,538.2,205.4z"/>
			</g>
		</g>
	</g>
	<g>
		<g>
			<path d="M498,700.3c33.7-1.4,67.5-2.7,101.2-4.1c4.8-0.2,9.7-0.4,14.5-0.6c-0.8-0.8-1.7-1.7-2.5-2.5
				c5.2,43.2,10.5,86.4,15.7,129.6c0.7,6,1.5,12.1,2.2,18.1c1.1-0.8,2.1-1.6,3.2-2.4c-19.5-3.9-39-7.9-58.5-11.8
				c-5.5-1.1-11.3-2.8-16.9-3.3c-9.4-0.8-19.1-0.5-28.5-0.7c-9.9-0.3-19.9-0.5-29.8-0.8c0.8,0.6,1.6,1.2,2.4,1.8
				c-9.1-41.3-11.5-84-0.6-125.2c0.8-3.1-4-4.4-4.8-1.3c-11.2,42.1-8.8,85.7,0.6,127.8c0.2,1.1,1.4,1.8,2.4,1.8
				c18.9,0.5,37.7,1,56.6,1.4c0.7,0,1.4,0,2,0.1c-1.5-0.1,0.8,0.2,1.1,0.3c3.6,0.8,7.3,1.5,11,2.2c12.2,2.5,24.3,4.9,36.5,7.4
				c8.4,1.7,16.8,3.4,25.2,5.1c1.4,0.3,3.4-0.7,3.2-2.4c-5.2-43.2-10.5-86.4-15.7-129.6c-0.7-6-1.5-12.1-2.2-18.1
				c-0.2-1.3-1-2.6-2.5-2.5c-33.7,1.4-67.5,2.7-101.2,4.1c-4.8,0.2-9.7,0.4-14.5,0.6C494.8,695.4,494.8,700.4,498,700.3z"/>
		</g>
	</g>
	<g>
		<g>
			<path d="M559.7,825.7c-0.9-25.4-1.8-50.7-2.8-76.1c-0.1-3.6-0.3-7.3-0.4-10.9c-0.1-3.2-5.1-3.2-5,0c0.9,25.4,1.8,50.7,2.8,76.1
				c0.1,3.6,0.3,7.3,0.4,10.9C554.8,829,559.8,829,559.7,825.7L559.7,825.7z"/>
		</g>
	</g>
	<g>
		<g>
			<g>
				<path d="M499.6,842.8c0.1,5.2,2.8,9.7,8.3,10.4c2.4,0.3,4.8,0.3,7.2,0.5c9.5,0.6,19,1.2,28.6,1.8c2,0.1,4.2,0.5,6.2,0.4
					c5.4-0.2,9.1-4.8,8.8-10.1c-0.3-6.9-2-13.9-2.9-20.7c-0.2-1.1-1.4-1.8-2.4-1.8c-16.8,0-33.5,0-50.3,0.1c-1.4,0-2.4,1.1-2.5,2.5
					C500.2,831.5,499.9,837.1,499.6,842.8c-0.2,3.2,4.8,3.2,5,0c0.3-5.7,0.6-11.4,0.9-17c-0.8,0.8-1.7,1.7-2.5,2.5
					c16.8,0,33.5,0,50.3-0.1c-0.8-0.6-1.6-1.2-2.4-1.8c0.9,6.1,1.7,12.1,2.6,18.2c1,7.1-5.3,6.2-10.2,5.8c-7.7-0.5-15.4-1-23.1-1.5
					c-3-0.2-6.1-0.4-9.1-0.6c-3.6-0.2-6.3-0.4-6.4-5.6C504.5,839.6,499.5,839.6,499.6,842.8z"/>
			</g>
		</g>
		<g>
			<path d="M543.6,844.2c-2.8,0-4.2,3.7-5.5,5c-0.1-3.2-3.7-11.2-8.2-11.2c-3.1,0-9,6.7-10.4,8.6c-0.1-3.5-3.5-11.8-7.5-11.8
				c-4.1,0-7.5,2.9-7.5,6.5v6.8c1,1.3,2.4,2.2,4,2.3l40.7,2.6v-4.3C549.1,846.3,547.8,844.2,543.6,844.2z"/>
			<g>
				<path d="M542.9,841.8c-3.4,0.6-4.6,3.2-6.6,5.7c1.4,0.6,2.8,1.2,4.3,1.8c-0.5-5.1-4-12.8-9.7-13.6c-5.5-0.8-10.6,5.9-13.5,9.7
					c1.6,0.4,3.1,0.8,4.7,1.3c-0.4-4.5-2.4-10.2-6.3-12.9c-4-2.8-9.9-0.8-12.4,3.1c-1.8,2.8-1.8,7.5-1.4,10.7
					c0.5,3.4,3.5,5.1,6.8,5.5c13.4,1.5,27,1.7,40.4,2.5c1.3,0.1,2.5-1.2,2.5-2.5c0-6.2-0.7-10.9-8-11.4c-3.2-0.2-3.2,4.8,0,5
					c3.8,0.2,3,3.5,3,6.4c0.8-0.8,1.7-1.7,2.5-2.5c-10.2-0.6-20.5-1.3-30.7-1.9c-2.4-0.1-4.8-0.3-7.1-0.4c-0.8-0.1-3.5,0.1-4.1-0.4
					c-0.5-0.4-0.5-5-0.3-6.4c0.4-2,2.8-4.7,5.2-4c0.9,0.3,1.8,1.5,2.3,2.3c1.4,1.9,2.3,4.6,2.6,7c0.2,2.6,3.1,3.2,4.7,1.3
					c1.6-2.1,4.6-6.1,7.2-6.9c3.7-1.1,6.5,5.1,6.8,8.2c0.2,1.9,2.8,3.6,4.3,1.8c1.2-1.5,2.3-4,4.4-4.4
					C547.4,846,546.1,841.2,542.9,841.8z"/>
			</g>
		</g>
	</g>
	<g>
		<g>
			<g>
				<path d="M561.6,843.8c0.1,5.2,2.8,9.5,8.1,10.4c1.4,0.2,3,0.2,4.4,0.3c8.3,0.6,16.5,1.2,24.8,1.8c5,0.4,11.1,1.8,16,1
					c8.4-1.4,6.2-12.9,5.9-18.8c-0.1-1-0.7-2.2-1.8-2.4c-17.8-3.7-35.5-7.3-53.3-11c-1.7-0.3-3.1,0.7-3.2,2.4
					C562.2,832.9,561.9,838.3,561.6,843.8c-0.2,3.2,4.8,3.2,5,0c0.3-5.4,0.6-10.9,0.9-16.3c-1.1,0.8-2.1,1.6-3.2,2.4
					c17.8,3.7,35.5,7.3,53.3,11c-0.6-0.8-1.2-1.6-1.8-2.4c0.2,3.9,2.3,12.7-2.9,13.9c-1.5,0.3-3.8-0.3-5.3-0.4
					c-2.9-0.2-5.9-0.4-8.8-0.6c-6.7-0.5-13.3-1-20-1.5c-4.9-0.4-12.1,0.9-12.3-6C566.5,840.6,561.5,840.6,561.6,843.8z"/>
			</g>
		</g>
		<g>
			<path d="M575.1,843c2.8,0.3,3.8,3.8,5,5.2c0.4-2.9,4.8-10,9.2-9.6c3.1,0.3,8.4,7.2,9.6,9c0.4-3.2,4.5-10.6,8.6-10.2
				c4.1,0.4,7.2,3.5,6.9,6.8l-0.6,6.3c-1.1,1.1-2.6,1.8-4.2,1.8l-40.7-1.7l0.4-4C569.4,844.4,570.9,842.6,575.1,843z"/>
			<g>
				<path d="M574.4,845.4c1.8,0.5,2.6,2.7,3.5,4.1c1.1,1.6,4.1,1.7,4.6-0.6c0.7-3.2,3.9-8.8,7.7-7.1c2.6,1.1,5,4.9,6.5,7.2
					c1.1,1.7,4.1,1.6,4.6-0.6c0.4-1.9,1.2-3.8,2.3-5.3c2.4-3.4,7.7-3.9,8.3,1.3c0.1,1.1-0.3,2.5-0.4,3.6c-0.2,2.4,0.4,2.2-2,2
					c-3.6-0.4-7.2-0.3-10.8-0.4c-10-0.4-19.9-0.8-29.9-1.2c0.8,0.8,1.7,1.7,2.5,2.5c0.3-2.9-0.1-5.3,3.8-5.2c3.2,0.1,3.2-4.9,0-5
					c-7.1-0.3-8.2,4.2-8.8,10.2c-0.1,1.4,1.3,2.4,2.5,2.5c13.2,0.5,26.6,1.8,39.8,1.6c3,0,6.4-0.8,7.6-3.9c0.9-2.4,1.1-7.6,0.1-10
					c-1.7-4.2-7.3-7.1-11.7-5.4c-4.3,1.7-7.3,7.2-8.2,11.5c1.5-0.2,3-0.4,4.6-0.6c-2.6-3.9-6.9-10.3-12.2-10.3
					c-5.5,0-10.1,6.6-11.1,11.4c1.5-0.2,3-0.4,4.6-0.6c-1.9-2.7-3-5.4-6.5-6.4C572.6,839.7,571.3,844.5,574.4,845.4z"/>
			</g>
		</g>
	</g>
	<g>
		<g>
			<g>
				<path d="M178.3,314.2c-3.4,9.2-1.4,21.6,2.3,30.5c0.7,1.6,1.4,3.2,2.4,4.6c0.5,0.6,0.9,1.1,1.5,1.6c1.6,1.3-1.3-1.3,0.1-0.1
					c2.2,1.9,4.3,2.8,7.2,3.5c9.5,2.2,20.8,1.9,29.2-3.6c5.6-3.7,3.9-12.2,3.7-18.2c-0.3-7.8-1.7-15.4-4.2-22.8
					c-0.4-1.2-1.8-2.3-3.1-1.7c-11.8,4.8-24.1,5.9-36.7,4.4c-3.2-0.4-3.2,4.6,0,5c13,1.5,25.8,0.4,38-4.6c-1-0.6-2.1-1.2-3.1-1.7
					c1.9,5.8,3.2,11.8,3.8,18c0.4,4.2,2.1,14.9-1.5,17.7c-6.3,5-17.4,4.5-24.8,2.7c-1.2-0.3-2.4-0.7-3.6-1.1c-1.5-0.5,0.4,0.7-1-0.8
					c-2.1-2.2-3.2-4.2-4.1-7.1c-2.4-7.6-4.1-17.2-1.2-24.9C184.2,312.5,179.4,311.2,178.3,314.2z"/>
			</g>
		</g>
		<g>
			<g>
				<path d="M219.6,315.6c6.7-1.4,18.1-2,16.2,8c-1.2,6.3-7,13-13.6,13.9c-3.1,0.4-3.2,5.4,0,5c9.5-1.3,17.8-10,18.7-19.6
					c1.4-13.3-13-14.3-22.7-12.2C215.1,311.4,216.4,316.3,219.6,315.6L219.6,315.6z"/>
			</g>
		</g>
		<g>
			<g>
				<path d="M178,284.2c3.3,1.7,1.1,6.1,1.2,9.2c0.1,5.2,2.9,9.2,6.4,12.8c2.3,2.3,5.8-1.3,3.5-3.5c-5-4.9-4.9-8.5-4.4-14.8
					c0.3-3.6-0.9-6.2-4.2-7.9C177.6,278.4,175.1,282.7,178,284.2L178,284.2z"/>
			</g>
		</g>
		<g>
			<g>
				<path d="M187.5,284.2c3.3,1.7,1.1,6.1,1.2,9.2c0.1,5.2,2.9,9.2,6.4,12.8c2.3,2.3,5.8-1.3,3.5-3.5c-5-4.9-4.9-8.5-4.4-14.8
					c0.3-3.6-0.9-6.2-4.2-7.9C187.1,278.4,184.6,282.7,187.5,284.2L187.5,284.2z"/>
			</g>
		</g>
		<g>
			<g>
				<path d="M197,284.2c3.3,1.7,1.1,6.1,1.2,9.2c0.1,5.2,2.9,9.2,6.4,12.8c2.3,2.3,5.8-1.3,3.5-3.5c-5-4.9-4.9-8.5-4.4-14.8
					c0.3-3.6-0.9-6.2-4.2-7.9C196.6,278.4,194.1,282.7,197,284.2L197,284.2z"/>
			</g>
		</g>
	</g>
	<g>
		<g>
			<path d="M543.6,505.1c1,2.7,2,5.5,2.9,8.2c1.1,3,5.9,1.7,4.8-1.3c-1-2.7-2-5.5-2.9-8.2C547.3,500.7,542.5,502,543.6,505.1
				L543.6,505.1z"/>
		</g>
	</g>
</g>
</svg>
